<?xml version="1.0" encoding="UTF-8" standalone="no"?>
<svg
   width="54.602806mm"
   height="62.175831mm"
   viewBox="0 0 54.602806 62.175831"
   version="1.1"
   id="svg1729"
   inkscape:version="1.4 (e7c3feb, 2024-10-09)"
   sodipodi:docname="lbg-4-flat-bk.svg"
   inkscape:export-filename="banner.png"
   inkscape:export-xdpi="96"
   inkscape:export-ydpi="96"
   xmlns:inkscape="http://www.inkscape.org/namespaces/inkscape"
   xmlns:sodipodi="http://sodipodi.sourceforge.net/DTD/sodipodi-0.dtd"
   xmlns="http://www.w3.org/2000/svg"
   xmlns:svg="http://www.w3.org/2000/svg"
   xmlns:rdf="http://www.w3.org/1999/02/22-rdf-syntax-ns#"
   xmlns:cc="http://creativecommons.org/ns#"
   xmlns:dc="http://purl.org/dc/elements/1.1/">
  <defs
     id="defs1723" />
  <sodipodi:namedview
     id="base"
     pagecolor="#ffffff"
     bordercolor="#666666"
     borderopacity="1.0"
     inkscape:pageopacity="0.0"
     inkscape:pageshadow="2"
     inkscape:zoom="0.59488468"
     inkscape:cx="204.24127"
     inkscape:cy="-12.607486"
     inkscape:document-units="mm"
     inkscape:current-layer="layer1"
     inkscape:document-rotation="0"
     showgrid="false"
     fit-margin-top="0"
     fit-margin-left="0"
     fit-margin-right="0"
     fit-margin-bottom="0"
     inkscape:window-width="1648"
     inkscape:window-height="958"
     inkscape:window-x="0"
     inkscape:window-y="0"
     inkscape:window-maximized="1"
     objecttolerance="10.0"
     gridtolerance="10.0"
     guidetolerance="10.0"
     inkscape:pagecheckerboard="0"
     inkscape:showpageshadow="2"
     inkscape:deskcolor="#d1d1d1" />
  <metadata
     id="metadata1726">
    <rdf:RDF>
      <cc:Work
         rdf:about="">
        <dc:format>image/svg+xml</dc:format>
        <dc:type
           rdf:resource="http://purl.org/dc/dcmitype/StillImage" />
      </cc:Work>
    </rdf:RDF>
  </metadata>
  <g
     inkscape:label="Layer 1"
     inkscape:groupmode="layer"
     id="layer1"
     transform="translate(7.9455327,-317.29158)">
    <path
       id="path4562"
       style="color:#000000;font-style:normal;font-variant:normal;font-weight:normal;font-stretch:normal;font-size:medium;line-height:normal;font-family:sans-serif;font-variant-ligatures:normal;font-variant-position:normal;font-variant-caps:normal;font-variant-numeric:normal;font-variant-alternates:normal;font-feature-settings:normal;text-indent:0;text-align:start;text-decoration:none;text-decoration-line:none;text-decoration-style:solid;text-decoration-color:#000000;letter-spacing:normal;word-spacing:normal;text-transform:none;writing-mode:lr-tb;direction:ltr;text-orientation:mixed;dominant-baseline:auto;baseline-shift:baseline;text-anchor:start;white-space:normal;shape-padding:0;clip-rule:nonzero;display:inline;overflow:visible;visibility:visible;isolation:auto;mix-blend-mode:normal;color-interpolation:sRGB;color-interpolation-filters:linearRGB;solid-color:#000000;solid-opacity:1;vector-effect:none;fill:#000000;fill-opacity:1;fill-rule:nonzero;stroke:none;stroke-width:6.52241;stroke-linecap:round;stroke-linejoin:round;stroke-miterlimit:4;stroke-dasharray:none;stroke-dashoffset:0;stroke-opacity:1;color-rendering:auto;image-rendering:auto;shape-rendering:auto;text-rendering:auto;enable-background:accumulate"
       d="m 15.648225,317.29159 c -0.03162,2.7e-4 -0.06119,0.0156 -0.07956,0.0414 -0.02755,0.0158 -0.0634,0.0206 -0.08095,0.0428 -0.03484,0.0439 -0.05715,0.0947 -0.07398,0.14795 -0.03367,0.10641 -0.04538,0.22395 -0.03908,0.31917 0.03349,0.50651 0.01108,0.79987 0.200062,1.35669 0.113257,0.2989 0.250565,0.59743 0.387096,0.85003 0.06923,0.12744 0.134688,0.24023 0.188428,0.32661 0.05375,0.0863 0.08508,0.1377 0.125622,0.1782 0.03691,0.0369 0.07968,0.0961 0.12655,0.17121 -13.661751,1.47932 -24.3479427,13.09432 -24.3479427,27.13997 0,11.06955 6.648374,20.61138 16.1486803,24.89043 0.038264,0.54237 0.1010169,1.08337 0.1898257,1.62422 0.1389211,0.84719 0.3625936,1.66804 0.9053943,2.36073 0.5968657,0.76137 1.3723044,1.13692 2.3495584,1.05706 0.522024,-0.0427 1.004908,-0.21409 1.457657,-0.46712 0.138921,-0.0775 0.186798,-0.0497 0.253567,0.081 0.122184,0.23878 0.257225,0.47288 0.403844,0.69742 0.409264,0.62726 0.917127,1.13488 1.674468,1.32459 0.286044,0.0435 0.690168,0.0518 0.957504,-0.0186 0.634194,-0.17683 1.121803,-0.5602 1.522794,-1.06451 0.08274,-0.10391 0.128685,-0.12107 0.216809,-0.0121 0.155084,0.19202 0.34461,0.35115 0.536446,0.50527 0.946278,0.7608 2.047866,0.69997 2.90275,-0.15819 0.397146,-0.39887 0.672686,-0.87625 0.87934,-1.39345 0.05546,-0.13892 0.09142,-0.1639 0.234957,-0.0921 0.795821,0.39752 1.54853,0.31045 2.233708,-0.25543 0.564734,-0.46621 1.030304,-1.25375 1.245033,-1.93874 0.02791,-0.0887 0.118454,-0.2237 0.02978,-0.2745 -0.0036,-0.002 -0.0063,-0.002 -0.0093,-0.004 0.65734,0.0272 1.154207,-0.2724 1.450677,-0.85561 11.011027,-3.5198 19.01933,-13.85031 19.01933,-26.00705 0,-15.04348 -12.257954,-27.30141 -27.301407,-27.30141 v 4.8e-4 c -0.371361,0 -0.740496,0.01 -1.108248,0.0247 -0.0053,-0.12963 -0.0043,-0.25714 0.0074,-0.3778 0.03674,-0.31202 0.05897,-0.48316 0.01396,-0.62577 -0.02261,-0.0716 -0.06852,-0.13081 -0.125157,-0.17401 -0.05672,-0.0432 -0.122253,-0.0745 -0.202852,-0.11119 -0.124209,-0.0566 -0.317516,-0.0802 -0.51225,-0.1005 -0.176473,-0.0184 -0.323746,-0.0262 -0.408964,-0.0279 -0.500482,-0.35744 -0.680767,-0.77627 -0.887249,-1.212 -0.04862,-0.17917 -0.09813,-0.33401 -0.167028,-0.45177 -0.0511,-0.0874 -0.140613,-0.12085 -0.226559,-0.15542 -0.01516,-0.0365 -0.05068,-0.0606 -0.09026,-0.0609 z m 0,0.19773 c 0.05312,0 0.09246,0.027 0.146091,0.11864 0.05366,0.0917 0.104505,0.23877 0.15307,0.42013 0.0014,0.005 0.0035,0.0113 0.0061,0.0168 0.206554,0.43589 0.408167,0.91406 0.96681,1.30459 0.0167,0.0114 0.03653,0.0175 0.05676,0.0172 0.05555,0 0.242705,0.009 0.430829,0.0288 0.188124,0.0196 0.391298,0.0566 0.450837,0.0837 0.07779,0.0355 0.132555,0.0636 0.165167,0.0884 0.03259,0.0249 0.04522,0.0419 0.0563,0.0772 0.02225,0.0706 0.01487,0.23328 -0.02187,0.54528 -1.62e-4,6.2e-4 -2.29e-4,9.5e-4 -4.77e-4,0.002 -0.0126,0.13 -0.01382,0.26607 -0.0084,0.40431 0.0017,0.0616 0.0084,0.12647 0.01629,0.2089 0.0079,0.0825 0.01484,0.13799 0.03257,0.23821 0.01772,0.10024 0.03933,0.19461 0.06467,0.28846 0.0096,0.0357 0.01782,0.0716 0.04839,0.16377 0.03055,0.0922 0.04683,0.13654 0.08607,0.2317 0.03924,0.0952 0.06272,0.1461 0.113055,0.24519 0.05034,0.0991 0.09214,0.17216 0.137718,0.24287 0.143988,0.22497 0.293128,0.45368 0.417804,0.64764 0.136362,0.21502 0.276553,0.43401 0.391281,0.62112 0.126017,0.21035 0.254275,0.42503 0.35639,0.60949 v 4.8e-4 c 0.05597,0.10138 0.110619,0.20273 0.16284,0.30474 0.05444,0.1063 0.106267,0.21627 0.150743,0.30847 v 4.8e-4 c 0.04812,0.10328 0.09403,0.20699 0.137718,0.31218 v 4.8e-4 c 0.04368,0.1052 0.08531,0.21143 0.124223,0.31917 0.04124,0.11344 0.07751,0.23043 0.109338,0.32847 v 4.8e-4 c 0.0338,0.11093 0.06517,0.22349 0.09352,0.33824 v 4.8e-4 c 0.02834,0.11475 0.05375,0.2316 0.0763,0.3508 v 4.8e-4 c 0.04511,0.23857 0.07874,0.48654 0.09863,0.74674 v 4.8e-4 c 0.0099,0.13004 0.01641,0.26325 0.01953,0.39965 2.38e-4,0.0146 0.0039,0.0291 0.0056,0.0423 0.06115,0.54704 0.16567,0.87704 0.376395,1.09197 0.623462,0.63587 1.110383,1.37583 1.579555,2.40585 0.277992,0.61031 0.584603,1.2405 0.700214,1.43114 0.108428,0.1788 0.406191,0.77357 0.671834,1.32924 0.132827,0.27785 0.25867,0.5476 0.351738,0.75512 0.04655,0.10375 0.08508,0.19227 0.111662,0.25729 0.01332,0.0325 0.01343,0.0449 0.03024,0.0782 0.01679,0.0332 0.03859,0.07 0.06793,0.1233 0.02404,0.0241 0.05537,0.0529 0.09491,0.087 0.07914,0.0683 0.189896,0.1577 0.323821,0.26334 0.267849,0.21127 0.628186,0.48502 1.003097,0.76302 0.374918,0.278 0.764332,0.55993 1.091033,0.78955 0.326714,0.22962 0.585106,0.40445 0.719291,0.47596 0.158814,0.0846 0.605279,0.41336 0.954247,0.71045 0.178004,0.15154 0.351037,0.28851 0.488057,0.38942 0.06851,0.0504 0.127656,0.0914 0.175868,0.12143 0.02413,0.015 0.04581,0.0275 0.06607,0.0372 0.02018,0.01 0.03235,0.0214 0.07584,0.0214 -0.0171,0 0.01041,0.003 0.04606,0.027 0.03556,0.024 0.0832,0.063 0.138647,0.11445 0.110866,0.10292 0.252844,0.25482 0.410357,0.43967 0.315017,0.3697 0.694695,0.8719 1.042647,1.39299 1.037371,1.55355 2.993724,3.83696 3.917482,4.56 0.878021,1.16033 1.424119,1.90725 1.767055,2.39655 0.142089,0.30795 0.260516,0.48861 0.339638,0.6188 0.07194,0.11834 0.101665,0.19965 0.118175,0.32335 -0.05474,0.0598 -0.104139,0.10919 -0.133994,0.11632 -0.0379,0.009 -0.09756,-0.002 -0.213553,-0.0558 -0.07446,-0.0345 -0.142711,-0.0764 -0.188431,-0.11212 -0.02287,-0.0178 -0.03991,-0.0344 -0.04792,-0.0442 -0.0045,-0.005 -0.0046,-0.007 -0.0037,-0.005 -0.004,-0.0195 -0.01367,-0.0373 -0.02792,-0.0512 -0.301315,-0.28762 -0.640384,-0.46524 -0.96681,-0.71091 l 0.0079,0.006 c -0.09877,-0.092 -0.230773,-0.12854 -0.353598,-0.14888 -0.122823,-0.0204 -0.239673,-0.0223 -0.309863,-0.0223 -0.105006,0 -0.413968,-0.0653 -0.633681,-0.1447 -0.191792,-0.0693 -0.266505,-0.10872 -0.302421,-0.17075 -0.03592,-0.062 -0.04932,-0.19336 -0.04932,-0.45735 0,-0.26316 -0.0136,-0.43921 -0.105147,-0.61042 -0.0916,-0.17121 -0.24791,-0.32291 -0.518765,-0.56808 h -4.77e-4 c -0.26159,-0.23545 -0.2762,-0.28241 -0.999842,-0.7044 -0.698738,-0.40747 -2.142781,-1.62453 -2.79388,-2.75806 l -4.77e-4,-4.8e-4 c -7.14e-4,-9.5e-4 -0.0019,-0.003 -0.0028,-0.004 -0.582042,-1.15622 -1.210745,-1.69275 -2.613362,-2.23371 -0.191499,-0.0738 -0.567425,-0.24517 -0.900275,-0.40524 -0.16643,-0.08 -0.322666,-0.15729 -0.440601,-0.21868 -0.216892,-0.11526 -0.346239,-0.21986 -0.553658,-0.34522 -0.180265,-0.10557 -0.411308,-0.23318 -0.65276,-0.35964 -0.222822,-0.11669 -0.591097,-0.1421 -1.007752,-0.0991 -0.594036,0.0613 -0.710696,0.0139 -1.270622,-0.15773 -0.268434,-0.15923 -0.538051,-0.50316 -0.777447,-0.93563 -0.241083,-0.43552 -0.454856,-0.95684 -0.631357,-1.45719 -0.351302,-0.99584 -0.553075,-1.89778 -0.555054,-1.90664 0.0036,-0.0813 0.0074,-0.0905 0.0074,-0.33591 0,-0.10931 -0.03898,-0.23459 -0.09677,-0.36988 -0.0578,-0.1353 -0.136003,-0.27663 -0.22472,-0.39687 -0.380543,-0.5158 -0.655169,-1.40929 -0.647641,-2.12344 0.0019,-0.17021 -0.01129,-0.3549 -0.03443,-0.51923 -0.02306,-0.16434 -0.05321,-0.3043 -0.09817,-0.40199 -0.489672,-1.06466 -0.682455,-1.72897 -0.677882,-2.28954 -8.1e-5,-0.0114 -0.0012,-0.0223 -0.0019,-0.033 -4.77e-4,-0.0837 -0.0055,-0.17803 -0.01582,-0.2852 -4e-5,-4.3e-4 4.1e-5,-9.6e-4 0,-0.002 -7.14e-4,-0.009 -0.0028,-0.0197 -0.0037,-0.0284 -0.01036,-0.10196 -0.02342,-0.21055 -0.04141,-0.33034 -0.01956,-0.13023 -0.04316,-0.26946 -0.07072,-0.4178 -0.02745,-0.14807 -0.0585,-0.30462 -0.09305,-0.46805 -0.0823,-0.37786 -0.170219,-0.75528 -0.249842,-1.07196 -0.102565,-0.39881 -0.210761,-0.80214 -0.308002,-1.14128 -0.113246,-0.38663 -0.232872,-0.78112 -0.341501,-1.11383 -0.116687,-0.35651 -0.234364,-0.69286 -0.349875,-0.99286 -0.07528,-0.19553 -0.147633,-0.36744 -0.21867,-0.5276 -0.0077,-0.0173 -0.01555,-0.034 -0.02327,-0.0507 -0.138261,-0.305 -0.270565,-0.54366 -0.401055,-0.67416 0.0027,0.003 -0.04601,-0.0605 -0.09724,-0.14283 -0.05123,-0.0823 -0.115357,-0.19215 -0.182847,-0.31638 -0.134986,-0.24845 -0.283536,-0.55564 -0.373137,-0.81886 -0.180877,-0.53285 -0.15658,-0.78931 -0.190756,-1.30644 -0.0045,-0.0642 0.0072,-0.16975 0.03117,-0.24659 0.01215,-0.0384 0.02783,-0.0694 0.03955,-0.0842 0.0025,-0.003 0.0043,-0.006 0.006,-0.009 z m 13.916365,6.47082 c 0.108649,-0.002 0.225464,0.0343 0.348946,0.0963 l 1.237589,0.62112 c 0.681286,0.34194 1.416622,0.90251 0.963551,1.80521 -0.173819,0.34632 -0.526605,0.58158 -0.989607,0.5411 l -0.0056,0.0116 c 0.37449,0.3301 0.504494,0.77928 0.222393,1.34134 -0.430276,0.85729 -1.305625,0.85873 -2.11181,0.45409 l -1.367863,-0.68672 c -0.329288,-0.16527 -0.479722,-0.40441 -0.271712,-0.81886 l 1.504649,-2.99766 c 0.130009,-0.25903 0.288368,-0.36495 0.469446,-0.36755 z m 0.393144,0.97147 -0.501547,0.99891 0.766747,0.38477 c 0.437156,0.21941 0.735527,0.14867 0.89795,-0.17494 0.196616,-0.39173 -0.07893,-0.66457 -0.425248,-0.8384 z m -0.797919,1.58932 -0.552728,1.10173 0.783499,0.39315 c 0.363348,0.18237 0.809392,0.31349 1.045901,-0.15772 0.247908,-0.49393 -0.152509,-0.77282 -0.606699,-1.00078 z m 5.316516,0.62996 c 0.503265,-0.006 1.028445,0.18247 1.532565,0.60205 1.152271,0.95902 1.139381,2.24567 0.281947,3.27589 -0.824924,0.99114 -2.145046,1.40489 -3.346143,0.40524 -1.259688,-1.04843 -1.094316,-2.29944 -0.208436,-3.36383 0.482307,-0.57949 1.093015,-0.9109 1.740067,-0.91935 z m -16.14077,0.38105 c 5e-6,0.005 9.53e-4,0.0124 9.53e-4,0.0172 -0.0054,0.6069 0.201583,1.29873 0.696026,2.37376 0.02638,0.0574 0.0601,0.19269 0.08189,0.34708 0.0217,0.15439 0.0342,0.33169 0.03257,0.48992 -0.0081,0.76496 0.269152,1.67719 0.686258,2.24255 0.07761,0.10517 0.150565,0.23601 0.202388,0.35732 0.05186,0.12133 0.08095,0.23755 0.08095,0.29218 0,0.25463 -0.0048,0.24583 -0.0084,0.34476 -1.5e-4,0.008 7.14e-4,0.0169 0.0028,0.0251 0,0 0.206757,0.92455 0.564359,1.93827 0.178805,0.50686 0.395412,1.03683 0.644849,1.48743 0.249437,0.45062 0.528958,0.82433 0.856077,1.0152 0.0066,0.005 0.0136,0.007 0.02094,0.01 0.576203,0.17624 0.748638,0.23334 1.364139,0.16982 0.393959,-0.0407 0.750589,8.6e-4 0.895625,0.0772 0.238849,0.1251 0.467638,0.25195 0.644384,0.35546 0.194923,0.11731 0.381324,0.25155 0.562032,0.34941 0.120898,0.0629 0.27839,0.14123 0.446185,0.22193 0.335579,0.16137 0.709973,0.33198 0.91563,0.41129 1.383303,0.53352 1.941726,1.01103 2.510537,2.14298 9.53e-4,0.002 0.0019,0.003 0.0028,0.005 0.681596,1.19031 2.125248,2.40169 2.868789,2.83529 0.719581,0.41963 0.698444,0.43824 0.967272,0.68021 0.268354,0.24291 0.407639,0.38466 0.476892,0.51411 0.06923,0.12945 0.08189,0.26128 0.08189,0.51783 0,0.26749 4.76e-4,0.42614 0.07584,0.55645 0.07545,0.13031 0.209437,0.18598 0.406636,0.25729 0.239147,0.0865 0.530672,0.15679 0.700679,0.15679 0.06735,0 0.173972,0.002 0.277761,0.0191 0.103789,0.0172 0.201247,0.0525 0.250774,0.0986 0.0025,0.002 0.0052,0.004 0.0079,0.006 0.34119,0.25679 0.671896,0.43177 0.948199,0.69509 0.0072,0.0113 0.009,0.0304 0.01675,0.04 0.02196,0.0266 0.0483,0.05 0.07909,0.074 0.06122,0.0478 0.139857,0.0955 0.227048,0.13586 0.128015,0.0593 0.233248,0.0943 0.341963,0.0684 0.108716,-0.0259 0.187512,-0.10466 0.277761,-0.21588 0.01606,-0.0197 0.02389,-0.045 0.02187,-0.0702 -0.01522,-0.18571 -0.07662,-0.30967 -0.160979,-0.44851 -0.08436,-0.13885 -0.193865,-0.30249 -0.334056,-0.60903 -0.0026,-0.005 -0.0057,-0.0105 -0.0093,-0.0154 -0.345934,-0.49369 -0.894534,-1.2445 -1.778686,-2.41283 -0.0052,-0.007 -0.01129,-0.0132 -0.01815,-0.0186 -0.862897,-0.66956 -2.861001,-2.98776 -3.888172,-4.52604 -0.352271,-0.52756 -0.735177,-1.03437 -1.056602,-1.41159 -0.16071,-0.18861 -0.305903,-0.34478 -0.426179,-0.45642 -0.06014,-0.0558 -0.113511,-0.10034 -0.16284,-0.13353 -0.05819,-0.0433 -0.143611,-0.0609 -0.146091,-0.0619 -0.0751,-0.0397 -0.150083,-0.0981 -0.210296,-0.14005 -0.131837,-0.0971 -0.302514,-0.23266 -0.477357,-0.38151 -0.356766,-0.30371 -0.784997,-0.62515 -0.989607,-0.73418 -0.10732,-0.0572 -0.373577,-0.23421 -0.698354,-0.46246 -0.324767,-0.22827 -0.713547,-0.51008 -1.08731,-0.78722 -0.373772,-0.27715 -0.73269,-0.54959 -0.99798,-0.75884 -0.132656,-0.10462 -0.241898,-0.19392 -0.316842,-0.25868 -0.03745,-0.0324 -0.06666,-0.0586 -0.08421,-0.0763 -0.0072,-0.007 -0.01041,-0.011 -0.01303,-0.014 -0.0027,-0.0106 -0.0044,-0.0232 -0.0093,-0.0358 -0.0081,-0.024 -0.01946,-0.0533 -0.0335,-0.0875 -0.02809,-0.0686 -0.06689,-0.1584 -0.113989,-0.26333 -0.09411,-0.20987 -0.220733,-0.48039 -0.354063,-0.75931 -0.266669,-0.55782 -0.556281,-1.14104 -0.681138,-1.34692 -0.09387,-0.1548 -0.412649,-0.80291 -0.689049,-1.40974 -0.47578,-1.04451 -0.976956,-1.8091 -1.618172,-2.46308 -0.158974,-0.16214 -0.256548,-0.43501 -0.316375,-0.93843 10.554683,0.78205 18.824384,9.54163 18.824384,20.30252 0,8.96117 -5.734687,16.53522 -13.747943,19.2701 0.0019,9.5e-4 0.0033,0.003 0.0051,0.005 -0.09941,-0.0675 -0.202496,-0.13037 -0.31033,-0.18563 -0.263868,-0.13522 -0.518024,-0.19838 -0.75744,-0.19076 -0.399027,0.0127 -0.756447,0.22199 -1.045904,0.62112 -0.283613,0.39118 -0.452013,0.83612 -0.577851,1.29714 -0.319403,1.1716 -0.491664,2.35604 -0.114919,3.54342 0.434465,1.36959 1.319089,2.2675 2.789692,2.48262 0.05825,0.008 0.114724,0.0138 0.170751,0.0177 -0.05717,0.0244 -0.09855,0.12076 -0.143763,0.17168 -0.351924,0.39733 -0.837068,0.96757 -1.263645,1.29062 -0.740982,0.56108 -1.459277,0.59045 -2.241619,0.087 -0.564922,-0.36347 -0.987044,-0.87074 -1.408805,-1.38275 -0.303628,-0.36866 -0.472268,-0.78199 -0.548075,-1.24783 -0.0989,-0.60822 -0.144776,-1.22033 -0.176334,-1.83451 -0.0027,-0.0602 0.0366,-0.1415 -0.05397,-0.17401 -0.03961,0.014 -0.04142,0.0445 -0.04466,0.0749 -0.0804,0.76638 -0.106995,1.53287 -0.02792,2.30117 0.03944,0.38194 0.178019,0.72464 0.381979,1.04962 0.440622,0.70193 0.939971,1.34971 1.610728,1.84941 0.06446,0.0479 0.09776,0.0809 0.03117,0.16098 -0.403682,0.48622 -0.810938,0.9681 -1.367398,1.29156 -0.436201,0.25321 -0.884748,0.27203 -1.346923,0.0698 -0.504123,-0.22051 -0.91004,-0.56925 -1.273881,-0.971 -0.758681,-0.83757 -1.324396,-1.80741 -1.881042,-2.78178 -0.134502,-0.23513 -0.177897,-0.50384 -0.184243,-0.77745 -0.01539,-0.67941 0.199934,-1.2987 0.482009,-1.90152 0.05618,-0.12044 0.118532,-0.23782 0.181452,-0.3629 -0.117759,-0.0294 -0.132137,0.046 -0.163307,0.0912 -0.339418,0.49027 -0.593983,1.01942 -0.737902,1.60049 -0.15951,0.64343 -0.111456,1.25524 0.200063,1.85499 0.496037,0.95437 0.975681,1.91703 1.650273,2.76364 0.08868,0.11122 0.0413,0.14775 -0.0535,0.20239 -0.246097,0.1422 -0.494887,0.27673 -0.754651,0.39314 -0.776185,0.34788 -1.475045,0.23518 -2.116928,-0.32242 -0.592058,-0.51452 -1.004532,-1.1559 -1.360883,-1.84243 -0.420995,-0.81101 -0.702387,-1.68831 -1.135698,-2.48914 -0.410416,-0.75809 -0.356188,-1.44805 0.07119,-2.15228 0.02116,-0.0349 0.0717,-0.0707 0.0047,-0.1205 -0.0154,0.006 -0.04059,0.008 -0.05211,0.0219 -0.328449,0.38464 -0.525989,0.82154 -0.563894,1.33297 -0.03286,0.4408 0.143635,0.82353 0.281016,1.22317 0.318826,0.928 0.585849,1.8743 1.01473,2.76131 0.06564,0.13585 0.0018,0.15571 -0.103752,0.17168 -0.28111,0.042 -0.560123,0.10289 -0.842585,0.12655 -0.994959,0.0831 -1.791104,-0.25431 -2.3346701,-1.12267 -0.2751504,-0.43966 -0.488084,-0.90863 -0.631822,-1.40275 -0.4908427,-1.68842 -0.6280244,-3.41277 -0.4517666,-5.15833 0.087332,-0.86509 1.6512657,-3.03055 2.2425487,-3.71091 -0.02206,-0.0962 -0.08318,-0.11442 -0.15307,-0.11492 v -9.5e-4 c -0.02332,-1.7e-4 -0.04752,0.002 -0.07165,0.004 -0.08067,0.0615 -0.234793,0.21105 -0.42199,0.40524 -6.7485862,-3.30948 -11.3751211,-10.23943 -11.3751211,-18.28841 0,-10.93643 8.5407399,-19.80512 19.3417541,-20.33369 z m 16.385034,0.55598 c -0.4201,-0.0122 -0.83313,0.22792 -1.183622,0.64904 -0.560779,0.67378 -0.807737,1.42692 -0.05583,2.05272 0.727494,0.60549 1.448202,0.24622 2.008988,-0.42757 0.560786,-0.67378 0.636571,-1.42026 -0.01767,-1.96479 -0.24534,-0.2042 -0.499801,-0.30213 -0.751857,-0.3094 z m 4.187331,2.75387 c 0.162456,-0.0118 0.319815,0.0627 0.438273,0.22193 0.189536,0.25487 0.142763,0.54332 -0.10701,0.72906 l -2.008524,1.49348 c -0.499536,0.37149 -0.51498,0.81847 -0.158652,1.29761 0.356328,0.47915 0.788766,0.59296 1.288302,0.22147 l 2.008524,-1.49349 c 0.249768,-0.18574 0.539525,-0.14785 0.729062,0.10701 0.189536,0.25487 0.142294,0.54285 -0.107475,0.7286 l -1.941993,1.44463 c -1.009269,0.75056 -1.925156,0.46599 -2.649185,-0.5076 -0.724028,-0.97359 -0.732906,-1.93304 0.276365,-2.68361 l 1.941991,-1.44417 c 0.09366,-0.0697 0.192848,-0.10783 0.290322,-0.11492 z m -39.71173053,0.37174 c 0.14110981,-0.01 0.28599077,0.0421 0.41547628,0.15401 l 2.71106525,2.3449 1.2524776,-1.44835 c 0.2148354,-0.2484 0.5154248,-0.33969 0.7532547,-0.13399 0.2378306,0.20569 0.1911114,0.51648 -0.023728,0.76488 l -1.5632708,1.80753 c -0.2651159,0.30654 -0.5605244,0.40204 -0.946337,0.0684 l -2.9329938,-2.5366 c -0.2589705,-0.22397 -0.2871728,-0.54436 -0.058623,-0.80862 0.1142747,-0.13213 0.25156905,-0.20255 0.39267877,-0.21216 z m -2.26906897,3.48759 c 0.040479,7.4e-4 0.083668,0.004 0.1302725,0.0126 l 4.0403107,0.64206 c 0.1181702,0.0171 0.3294486,0.0534 0.4396699,0.11398 0.244935,0.13465 0.3232908,0.457 0.1819163,0.71418 -0.1211783,0.22044 -0.2884717,0.33572 -0.5248123,0.30149 l -0.87608316,-0.14656 -0.88864481,1.61631 0.58994849,0.66718 c 0.15892193,0.17507 0.1610556,0.35998 0.02977659,0.59879 -0.15147254,0.27555 -0.42706438,0.37096 -0.69649293,0.22286 -0.11022125,-0.0606 -0.25395188,-0.21927 -0.33172976,-0.30986 l -2.72176622,-3.18656 c -0.1794395,-0.21028 -0.171401,-0.41341 -0.036755,-0.65834 l 0.131203,-0.23868 c 0.1089752,-0.19825 0.2498735,-0.35461 0.533187,-0.34941 z m 0.4894527,1.07102 -0.00698,0.0121 1.4432337,1.56699 0.64624508,-1.17571 z m 44.6476648,0.0209 c 0.250964,-0.0176 0.408723,0.13656 0.520159,0.38942 l 0.699285,1.587 c 0.499549,1.13351 0.01112,1.7098 -0.529466,1.94804 -0.453402,0.19982 -1.019209,0.13 -1.323662,-0.27729 l -0.01163,0.005 c 0.145434,0.51903 -0.170727,0.76212 -0.595067,0.94913 -0.482469,0.21263 -0.60633,0.42004 -0.803968,0.50714 -0.22089,0.0974 -0.471663,-0.0625 -0.569011,-0.28335 -0.230562,-0.52315 0.257138,-0.7869 0.425712,-0.86119 0.732421,-0.32278 0.969857,-0.58695 0.739295,-1.11011 l -0.415011,-0.94168 -1.226422,0.54016 c -0.284831,0.12552 -0.558635,0.024 -0.686724,-0.26659 -0.128089,-0.29065 -0.01822,-0.5612 0.266593,-0.68673 l 3.226108,-1.42183 c 0.106085,-0.0467 0.200153,-0.0714 0.283809,-0.0772 z m -0.03815,1.10778 -1.127787,0.4969 0.420128,0.95332 c 0.158831,0.3604 0.410824,0.67973 0.881666,0.47223 0.447592,-0.19726 0.4436,-0.52176 0.259149,-0.94029 z m -46.8218202,1.28133 c 0.040992,0.004 0.08473,0.0113 0.1307377,0.0251 0.086999,0.0261 0.1879251,0.0783 0.3010228,0.16331 l 3.3838298,2.53333 c 0.28040373,0.20819 0.28296856,0.44218 0.18052067,0.7835 -0.10244789,0.34132 -0.23380237,0.53569 -0.58250457,0.55505 l -4.2073385,0.21077 c -0.1412206,0.009 -0.2540315,-0.004 -0.341035,-0.0293 -0.3680933,-0.11048 -0.4043189,-0.42768 -0.3219593,-0.70207 0.088386,-0.29447 0.2905013,-0.40887 0.6485712,-0.41083 l 3.5769124,-0.007 0.00372,-0.0135 -2.9697492,-2.01457 c -0.2978052,-0.19882 -0.4038751,-0.40589 -0.3275425,-0.66021 0.072063,-0.2401 0.2378859,-0.45747 0.5248123,-0.43408 z m 48.8824522,2.83761 c 0.326321,-0.0159 0.499473,0.16326 0.5732,0.54529 0.04093,0.21206 -0.0039,0.41505 -0.169353,0.56342 l -2.542642,2.34724 0.0028,0.0125 2.663141,-0.51411 c 0.330575,-0.0638 0.528642,0.0922 0.587623,0.39779 0.05898,0.30563 -0.06676,0.5243 -0.397331,0.58809 l -3.524338,0.67975 c -0.405421,0.0782 -0.669735,-0.0516 -0.752788,-0.48201 -0.0626,-0.32434 -0.01446,-0.44391 0.166096,-0.61461 l 2.463548,-2.31885 -0.0024,-0.0126 -2.588236,0.49922 c -0.330574,0.0638 -0.529106,-0.0917 -0.588087,-0.39733 -0.05898,-0.30562 0.06722,-0.52428 0.397796,-0.58809 l 3.561558,-0.68719 c 0.05302,-0.0103 0.102732,-0.0163 0.149348,-0.0186 z m -28.91775,2.07479 c 0,0 -0.04291,0.0226 -0.02649,0.0821 0.141019,0.52283 0.266278,0.94473 0.281016,1.34646 0.01468,0.40103 -0.07554,0.78532 -0.37779,1.25713 -0.150509,0.17858 -0.322034,0.32149 -0.445253,0.52156 l -4.77e-4,4.8e-4 c -0.05933,0.0977 -0.09881,0.17033 -0.122363,0.24007 -0.02359,0.0697 -0.02857,0.13817 -0.01768,0.20192 0.0095,0.0561 0.03052,0.11147 0.06653,0.15912 0.03601,0.0476 0.08283,0.0868 0.145161,0.13167 0.03016,0.0217 0.06129,0.0428 0.0884,0.06 0.02107,0.0133 0.03667,0.0219 0.0563,0.0312 4.77e-4,0.005 0.0016,0.0166 -0.0056,0.0405 l -0.01768,0.0582 c -0.01133,0.037 -6e-5,0.0772 0.02885,0.10283 l 0.07956,0.0707 1.535821,1.42695 0.206111,0.13213 c 0.05708,0.0366 0.109916,0.0697 0.198665,0.11724 0.08875,0.0475 0.115764,0.0602 0.143766,0.074 0.274988,0.13549 0.581622,0.17112 0.82816,0.16377 0.179544,-0.005 0.359682,-0.0139 0.543423,-0.0363 0.04997,0.003 0.09784,0.004 0.135855,0.005 0.443602,-0.15038 1.092453,-0.55787 1.393451,-0.96356 0.300999,-0.40569 0.555448,-1.07251 0.521091,-1.53396 h 4.76e-4 c -0.02018,-0.42973 -0.121817,-0.8752 -0.377789,-1.22735 -0.237264,-0.14569 -0.422677,-0.43542 -0.147953,-0.64671 0.187037,-0.24244 0.242807,-0.62798 -9.53e-4,-0.85375 -0.258287,-0.2326 -0.613346,-0.33753 -0.954247,-0.36616 -0.382453,-0.006 -0.750379,0.27422 -0.851889,0.6402 0.0208,0.19774 0.05924,0.45979 -0.215416,0.31312 -0.137282,-0.0498 -0.14186,-0.0528 -0.14186,-0.0528 -0.108456,0.12267 -0.293011,0.45119 -0.34992,0.56973 0.216111,0.11456 0.450341,0.24024 0.609026,0.42292 0.04691,0.23746 0.221638,0.41349 0.243794,0.65415 0.03448,0.23861 -0.222824,0.3931 -0.435481,0.35965 -0.05807,0.005 -0.188646,-0.0102 -0.115386,0.0447 -0.206768,0.0371 -0.50426,0.0731 -0.388956,0.35221 0.03755,0.20778 0.309279,-0.18618 0.206109,0.10282 -0.04466,0.25448 0.39323,0.0199 0.286136,0.32847 0.05429,0.24123 -0.07512,0.49743 0.01255,0.70812 0.111831,0.0772 0.223344,0.11497 0.289393,0.21542 0.06346,0.0965 0.07651,0.22182 0.08002,0.33731 0.0036,0.13535 0.01246,0.2943 -0.05164,0.40897 -0.09782,0.007 -0.194793,0.017 -0.294976,0.02 -0.22175,0.006 -0.500232,-0.0283 -0.734643,-0.14376 -0.0298,-0.0147 -0.05829,-0.0283 -0.10003,-0.0475 -0.04174,-0.0192 -0.0575,-0.0282 -0.07677,-0.04 -0.03844,-0.0235 -0.09043,-0.0566 -0.146556,-0.0926 l -0.18657,-0.1191 -0.03489,-0.0596 c -0.578642,-0.52713 -1.520002,-1.53861 -1.520002,-1.53861 0,0 -0.05285,-0.10212 -0.105614,-0.12236 0.01215,0.005 -0.01484,-0.008 -0.03815,-0.0228 -0.02332,-0.0148 -0.05171,-0.0341 -0.07863,-0.0535 -0.05555,-0.04 -0.08651,-0.0683 -0.102822,-0.0898 -0.0163,-0.0215 -0.02272,-0.0376 -0.02885,-0.0735 -0.0063,-0.0377 -0.0054,-0.0611 0.0098,-0.10561 0.01504,-0.0444 0.04718,-0.10806 0.103288,-0.20053 l 4.76e-4,-4.7e-4 c 0.102457,-0.16611 0.2695,-0.30691 0.435017,-0.50528 0.0025,-0.003 0.0048,-0.006 0.007,-0.01 0.320708,-0.4997 0.426394,-0.93635 0.410359,-1.37345 -0.01404,-0.38226 -0.13243,-0.77962 -0.251705,-1.21665 -0.07742,-0.0458 -0.177839,-0.1687 -0.200542,-0.20497 z m -17.104754,0.49903 c 0.2784904,0.0238 0.4804376,0.28636 0.4554886,0.57878 -0.021382,0.25064 -0.1273978,0.42399 -0.357319,0.48852 l -0.8607294,0.221 -0.1567923,1.83824 0.810016,0.37081 c 0.2162578,0.0956 0.2930185,0.26306 0.2698504,0.53458 -0.026731,0.31331 -0.2398747,0.5128 -0.5462143,0.48666 -0.1253208,-0.0107 -0.3211371,-0.0976 -0.4289689,-0.14888 l -3.7802307,-1.80939 c -0.2492874,-0.11946 -0.324319,-0.3082 -0.3005574,-0.58669 l 0.023263,-0.27125 c 0.021977,-0.2576 0.1041422,-0.48237 0.4699118,-0.57739 l 3.9537723,-1.05102 c 0.1149607,-0.0322 0.3231882,-0.0846 0.44851,-0.074 z m -1.5772287,1.47161 -2.0676117,0.47549 -9.314e-4,0.014 1.9540884,0.84724 z m 48.4520887,1.28272 c 0.355685,0.005 0.470897,0.3318 0.467586,0.53505 -0.004,0.24771 -0.107182,0.36013 -0.31219,0.46479 l -1.685169,0.8812 1.655392,0.92913 c 0.226691,0.1244 0.301285,0.24 0.297766,0.45595 -0.0031,0.19055 -0.129116,0.51246 -0.484798,0.50667 -0.09527,-0.002 -0.18997,-0.0413 -0.271713,-0.0935 l -2.100645,-1.3111 -1.346459,-0.0219 c -0.311225,-0.005 -0.517422,-0.21189 -0.51225,-0.52946 0.0052,-0.31758 0.217776,-0.51732 0.528999,-0.51225 l 1.346926,0.0219 2.142053,-1.24178 c 0.0834,-0.0495 0.179229,-0.0862 0.274502,-0.0847 z m -47.2037984,2.0169 v 4.7e-4 c 0.2476507,0.0257 0.4040614,0.24746 0.4387394,0.53272 l 0.2884608,2.37236 c 0.048906,0.40231 -0.078464,0.68519 -0.584831,0.74674 l -3.8500194,0.46805 c -0.3398886,0.0413 -0.5957078,-0.15286 -0.6378703,-0.49969 -0.042162,-0.34682 0.1597997,-0.59655 0.4996883,-0.63786 l 3.5583021,-0.4327 -0.2307686,-1.90058 c -0.039633,-0.32602 0.09496,-0.60969 0.4071017,-0.64764 0.03902,-0.005 0.075817,-0.005 0.111197,-0.002 z m 43.8837094,4.56884 c 0.296325,0.0104 0.60265,0.0711 0.907255,0.17168 1.465732,0.48415 1.971276,1.66793 1.526981,3.01302 -0.36261,1.09779 -1.213525,1.46607 -1.59956,1.33855 -0.343815,-0.11356 -0.350749,-0.39698 -0.281017,-0.60809 0.161379,-0.48857 0.783422,-0.0827 1.102198,-1.04776 0.225137,-0.6816 -0.04395,-1.36583 -1.141746,-1.72844 -0.856518,-0.28292 -1.58708,-0.0559 -1.854057,0.75232 -0.173336,0.52477 0.03135,1.10102 0.546214,1.3246 l 0.213089,-0.64532 c 0.06973,-0.21111 0.225547,-0.42064 0.527138,-0.32103 0.241271,0.0797 0.334322,0.26402 0.252637,0.51132 l -0.402451,1.21852 c -0.09563,0.28952 -0.27804,0.35624 -0.549471,0.26659 l -1.634921,-0.5397 c -0.180953,-0.0598 -0.285814,-0.24853 -0.220068,-0.44758 0.09364,-0.2835 0.294257,-0.30401 0.700217,-0.23682 -0.262236,-0.40104 -0.361874,-0.86892 -0.158654,-1.48417 0.379544,-1.14906 1.17724,-1.56917 2.066216,-1.53769 z m -24.80064,0.51691 c -0.110488,-0.002 -0.222112,0.0228 -0.440601,0.0484 -0.218486,0.0256 -0.482888,0.0642 -0.680673,0.1126 -0.199505,0.0488 -0.336959,0.10157 -0.419664,0.20424 -0.04132,0.0513 -0.06296,0.12024 -0.0563,0.18518 0.0063,0.0649 0.03541,0.12356 0.07584,0.18145 0.08085,0.11577 0.214084,0.23394 0.397796,0.37407 0.189286,0.14438 0.284871,0.23589 0.335453,0.33778 0.0506,0.10189 0.0656,0.23301 0.0656,0.46991 0,0.20674 0.0101,0.34958 0.04746,0.45874 0.01872,0.0546 0.04601,0.10285 0.08886,0.13818 0.04286,0.0354 0.09886,0.0521 0.150746,0.0521 0.05222,0 0.108696,-0.0165 0.151672,-0.0526 0.04295,-0.036 0.06985,-0.085 0.0884,-0.14051 0.02998,-0.0899 0.03455,-0.22832 0.03815,-0.38151 1.64e-4,0.0211 0.0028,0.0333 0.0028,0.0549 -9.53e-4,0.23304 0.01212,0.41993 0.04048,0.56064 0.01413,0.0703 0.0313,0.1294 0.05722,0.17959 0.02584,0.0501 0.06275,0.0971 0.12283,0.11771 0.05951,0.0204 0.136236,9.5e-4 0.181449,-0.0414 0.0452,-0.0422 0.07221,-0.0973 0.09491,-0.16656 0.04547,-0.13856 0.06979,-0.34064 0.06979,-0.62764 0,-0.21431 0.01005,-0.37877 0.02698,-0.48666 0.0027,-0.0185 0.0063,-0.0246 0.0093,-0.0396 0.03871,0.0844 0.0859,0.22465 0.135858,0.42292 0.08427,0.33459 0.189684,0.58254 0.304279,0.73093 0.05726,0.0742 0.117889,0.13247 0.20704,0.14237 0.04457,0.005 0.09356,-0.009 0.129342,-0.0363 0.03574,-0.0271 0.05999,-0.0632 0.07863,-0.10376 9.53e-4,-0.002 0.0019,-0.004 0.0028,-0.006 0.02206,-0.0574 0.02087,-0.11362 0.01582,-0.18099 -0.0045,-0.0565 -0.01656,-0.12303 -0.03071,-0.19215 0.635132,0.95728 0.114766,2.28488 -0.787684,3.0735 2.818595,1.31935 2.674107,3.72423 0.838397,4.75681 0.114731,0.21182 0.337023,0.29268 0.442926,0.31033 3.486088,-0.40596 2.399133,-4.54686 0.272177,-5.04992 1.289757,-1.09479 1.29126,-3.22731 -0.182383,-4.0552 -0.103958,-0.14494 -0.236524,-0.31331 -0.616001,-0.65602 -0.379476,-0.3427 -0.730992,-0.62426 -1.247825,-0.69463 -0.0037,-4.7e-4 -0.0075,-7.1e-4 -0.01117,-9.5e-4 z m -0.01117,0.1982 9.53e-4,4.7e-4 h 4.76e-4 c 0.455213,0.0635 0.764549,0.30679 1.36786,0.82723 0.136184,0.14813 0.308009,0.30616 0.408032,0.44712 0.08661,0.0925 0.154865,0.26623 0.111663,0.29544 -0.06904,0.0432 -0.367162,-0.30635 -0.494106,-0.44433 -0.12181,-0.133 -0.240857,-0.24549 -0.339172,-0.32242 -0.04916,-0.0385 -0.09232,-0.068 -0.134461,-0.0884 -0.02106,-0.0102 -0.04122,-0.0191 -0.06886,-0.0228 -0.02755,-0.004 -0.07311,-4.7e-4 -0.10701,0.0335 -0.03592,0.0359 -0.03627,0.067 -0.03815,0.0917 -0.0019,0.0247 4.77e-4,0.0478 0.0033,0.0735 0.0063,0.0519 0.0203,0.11348 0.04001,0.18517 0.03943,0.14339 0.102944,0.3257 0.182381,0.51737 0.0759,0.18307 0.136203,0.37452 0.171215,0.53086 0.01756,0.0781 0.02852,0.14748 0.03257,0.20099 0.0036,0.0522 -0.0024,0.0892 -0.0033,0.0926 -0.0054,0.0102 -0.0081,0.0139 -0.01024,0.0168 -0.0019,-0.002 -0.02845,-0.0122 -0.06653,-0.0614 -0.08301,-0.10753 -0.188834,-0.33983 -0.268918,-0.65788 -0.05249,-0.20833 -0.101622,-0.36096 -0.150746,-0.46619 -0.02458,-0.0526 -0.04745,-0.0937 -0.08049,-0.12794 -0.01648,-0.0171 -0.03574,-0.0336 -0.06374,-0.0442 -0.028,-0.0106 -0.06618,-0.0119 -0.09677,0 -0.06122,0.0238 -0.08292,0.07 -0.100497,0.11399 -0.01756,0.0439 -0.02974,0.0954 -0.03955,0.15819 -0.01963,0.12557 -0.02979,0.29696 -0.02978,0.51736 0,0.27522 -0.02569,0.4638 -0.05909,0.56576 -0.01325,0.0403 -0.02495,0.0549 -0.0335,0.0665 -0.0019,-0.004 4.76e-4,4.8e-4 -0.0028,-0.005 -0.01279,-0.0248 -0.02766,-0.0689 -0.03955,-0.12795 -0.02377,-0.11813 -0.03727,-0.29604 -0.03629,-0.52109 9.53e-4,-0.199 -0.0094,-0.37965 -0.02745,-0.51504 -0.009,-0.0677 -0.01929,-0.12329 -0.03396,-0.16936 -0.0072,-0.0231 -0.01491,-0.0436 -0.02978,-0.0661 -0.01486,-0.0224 -0.0461,-0.0591 -0.101891,-0.0591 -0.04583,0 -0.07851,0.0267 -0.09538,0.047 -0.01694,0.0202 -0.02585,0.0395 -0.03396,0.0596 -0.01629,0.0403 -0.02721,0.0861 -0.03676,0.14144 -0.01908,0.1107 -0.03024,0.25633 -0.03024,0.41641 0,0.2055 -0.01451,0.34111 -0.03676,0.40803 -0.01117,0.0335 -0.02251,0.0471 -0.02791,0.0516 -0.0054,0.005 -0.0072,0.007 -0.02466,0.007 -0.01756,0 -0.01972,-0.002 -0.02512,-0.007 -0.0054,-0.005 -0.01684,-0.0175 -0.02792,-0.0498 -0.02215,-0.0646 -0.03675,-0.19632 -0.03675,-0.395 0,-0.24443 -0.01251,-0.41011 -0.08561,-0.55738 -0.07311,-0.14728 -0.197459,-0.2582 -0.392679,-0.40711 -0.176933,-0.13495 -0.299103,-0.24852 -0.355923,-0.32986 -0.02836,-0.0407 -0.03915,-0.0715 -0.04094,-0.0889 -0.0018,-0.0174 -7.38e-4,-0.0239 0.01303,-0.0409 0.02737,-0.0339 0.130027,-0.0915 0.31312,-0.13632 0.183099,-0.0448 0.442491,-0.0827 0.662528,-0.10841 0.220037,-0.0257 0.323641,-0.0462 0.400124,-0.0461 z m 7.305964,0.79373 -1.641435,0.0451 c 0.741344,0.44128 2.60775,0.78165 2.448659,3.261 l 1.511626,-0.0614 c 0.09604,-2.80049 -1.780492,-3.23591 -2.31885,-3.24472 z m 14.015001,3.89794 c 0.09766,-0.004 0.200263,0.0234 0.301022,0.0824 l 1.162683,0.67974 2.476109,-0.0312 c 0.09694,-0.002 0.198297,0.0129 0.280552,0.0609 0.30708,0.17957 0.247775,0.52055 0.14516,0.69603 -0.125059,0.21385 -0.270631,0.26109 -0.500618,0.2517 l -1.900583,-0.0591 0.986813,1.62189 c 0.136484,0.21963 0.144852,0.35698 0.03583,0.54342 -0.09619,0.16451 -0.364287,0.3829 -0.671367,0.20332 -0.08226,-0.0481 -0.145124,-0.12893 -0.190758,-0.21448 l -1.186876,-2.17323 -1.162683,-0.67974 c -0.268694,-0.15713 -0.346902,-0.4386 -0.186568,-0.71278 0.100209,-0.17136 0.24852,-0.26278 0.411289,-0.26892 z m -12.132096,0.72906 -1.367398,0.11399 c 0.917855,0.37068 0.724259,2.63394 -0.935171,4.02775 0.266603,0.61159 0.75279,0.60949 0.75279,0.60949 1.967041,-0.7353 2.838295,-3.98341 1.549779,-4.75123 z m 10.542305,1.80009 c 0.119444,0.0107 0.233917,0.0743 0.328938,0.16331 l 2.711532,2.54124 c 0.305922,0.28668 0.179958,0.56047 -0.01117,0.76442 l -0.208436,0.2224 c -0.221524,0.2364 -0.418428,0.2606 -0.747207,0.10049 l -2.762707,-1.34367 -0.0088,0.009 1.529307,2.66035 c 0.181094,0.3177 0.169414,0.51593 -0.05211,0.75232 l -0.200061,0.21309 c -0.19112,0.20395 -0.455705,0.34715 -0.76163,0.0605 l -2.711997,-2.54079 c -0.190043,-0.17808 -0.283716,-0.44012 -0.05351,-0.68579 0.230214,-0.24566 0.49761,-0.16941 0.687654,0.009 l 2.067612,1.93734 0.0084,-0.009 -1.55071,-2.78551 c -0.109816,-0.19868 -0.06626,-0.37512 0.08142,-0.53272 0.147683,-0.1576 0.321297,-0.21301 0.526674,-0.11632 l 2.879954,1.3674 0.0088,-0.009 -2.067148,-1.93733 c -0.190043,-0.1781 -0.28418,-0.44013 -0.05397,-0.6858 0.115107,-0.12283 0.239737,-0.16519 0.359179,-0.15446 z m -20.965973,0.84026 c 0,0 -2.117007,1.72501 -3.732309,0.95657 0.266601,0.61162 1.035202,1.33343 1.035202,1.33343 2.25829,-0.32934 3.685318,-1.38042 3.685318,-1.38042 z"
       sodipodi:nodetypes="scccccccccsccccccccccccccccccccsccccccssccccsscsscccccscccccccsssccccccccccccccccccccccssscccccscssscsccccssccscccccccccssssscccsccccsccsscsccscccccccsccscccccsccccsccccccccsccsccccccccsccccsscccscsscccsccscsccssccccccccccsccsccsccccccccccsccccsssccccccscccccccsscscsccsscccccccccccccccccccccccccccccccccccccccccccccccccsccsscsccccccccsccsccccccccccccscsccccccccssccsssccccssccsccssccsccsccsccsscsccccscccsccccsccsccccccccccccsccccccccccccccccccccccccccsccccccccccccccccccccccsscccccccccccccccccccccscccscccccccccccccscccscsccsccccccccccssccccccssssssccsccccscsccsscccsccccscccccccccscccccccccccccccsccccccccccccccccscccccccccsccccccccccccscccsccssssscccccccccccccccccsccccccccsccccccsccccccccccccsccccsccccsscccccccsccccccc" />
    <path
       sodipodi:nodetypes="ccccccczzcccccsccsccccccccccc"
       inkscape:connector-curvature="0"
       id="path4574"
       d="m 16.321148,352.58553 c 0.0027,-0.23246 -0.165229,-1.76377 -0.0072,-2.05831 0.06491,-0.12128 0.129792,-0.7817 0.144161,-1.4676 0.03241,-0.99426 0.16992,-2.55218 0.590294,-3.32745 0.110786,-0.18982 0.177806,-0.30028 0.277977,-0.43914 0.117367,-0.19756 0.179814,-0.27832 0.344395,-0.57544 0.221157,-0.29966 0.713035,-0.58192 0.610136,-1.06719 0.0081,-0.34247 0.01017,-0.59795 0.157612,-0.91014 0.14743,-0.31218 0.22231,-0.63902 0.478671,-1.61619 0.25636,-0.97717 0.696046,-1.65686 0.87866,-2.43296 0.09669,-0.42593 0.313802,-0.61296 0.621292,-0.61296 0.575555,0.35637 1.34686,0.50558 1.876228,0.48169 0.259061,-0.005 0.537641,-0.0301 0.434013,-0.068 -0.940252,-0.36057 -1.749398,-2.49901 -1.167568,-3.38699 0.39214,-0.59848 1.641107,-0.86475 2.509647,-0.53504 l 0.353597,0.13423 -0.36034,-0.37649 c -0.229972,-0.24027 -0.58861,-0.43125 -0.991202,-0.52784 -1.061446,-0.25463 -2.962478,0.007 -3.458713,0.47575 -0.711568,0.41086 -1.401879,0.79121 -1.984286,1.22761 -0.970143,0.66176 -1.82372,1.56064 -2.377082,2.57506 -1.118175,2.12625 -1.080794,2.01876 -0.947112,2.72361 0.177905,0.93813 0.782712,2.41611 1.019436,2.49124 0.406833,0.12912 0.526478,0.58346 0.297712,1.1306 -0.849156,2.03107 -1.221164,5.65943 -0.772439,7.53391 0.115774,0.48357 0.225956,1.0488 0.244872,1.25605 0.03133,0.34297 0.0795,0.38015 0.537363,0.41393 0.282461,0.0208 0.555343,0.0226 0.643197,-0.0653 -0.0036,-0.47042 0.0072,-0.62983 0.047,-0.9767 z"
       style="fill:#15a0db;fill-opacity:1;stroke-width:0.13951" />
    <path
       id="path4582"
       style="fill:#00aa00;fill-opacity:1;stroke:none;stroke-width:0.313681px;stroke-linecap:butt;stroke-linejoin:miter;stroke-opacity:1"
       d="m 11.952671,354.30528 -1.555361,0.37918 c 0.117909,1.89461 -0.7295353,5.95034 0.776052,9.17538 0.671432,0.13862 1.701918,0.14004 1.701918,0.14004 -1.936076,-3.48251 -0.838325,-7.45334 -0.922609,-9.6946 z m 12.160479,0.13725 -1.641435,0.0451 c -1.951577,1.21935 -2.769263,6.67683 0.369882,9.20189 0.671431,0.13862 1.604679,0.13121 1.604679,0.13121 -3.100893,-1.91176 -2.423171,-8.42662 -0.333126,-9.37823 z m -8.095975,0.43083 c -1.766409,3.86046 -0.444663,8.4833 0.790011,8.91343 0.893905,0.26661 1.635316,0.22918 1.796829,0.12144 -1.604813,-0.7822 -2.36665,-5.04692 -1.199437,-8.48866 -7.14e-4,-0.002 -0.0012,-0.005 -0.0019,-0.007 -0.04996,-0.19827 -0.09714,-0.33856 -0.135857,-0.42292 -0.003,0.0149 -0.0066,0.0211 -0.0093,0.0396 -0.01691,0.1079 -0.02698,0.27235 -0.02698,0.48666 0,0.287 -0.02432,0.48908 -0.06979,0.62764 -0.0227,0.0693 -0.04972,0.12433 -0.09491,0.16656 -0.04521,0.0423 -0.121939,0.0618 -0.181449,0.0414 -0.06008,-0.0206 -0.09699,-0.0676 -0.12283,-0.11771 -0.02593,-0.0502 -0.04309,-0.10928 -0.05723,-0.17959 -0.02836,-0.14071 -0.04138,-0.3276 -0.04048,-0.56064 0,-0.0216 -0.0026,-0.0338 -0.0028,-0.0549 -0.0036,0.15319 -0.0082,0.29157 -0.03815,0.38151 -0.01856,0.0555 -0.04545,0.1045 -0.0884,0.14051 -0.04298,0.036 -0.09945,0.0526 -0.151673,0.0526 -0.05189,0 -0.107889,-0.0167 -0.150745,-0.0521 -0.04285,-0.0353 -0.07014,-0.0836 -0.08886,-0.13818 -0.03736,-0.10916 -0.04746,-0.252 -0.04746,-0.45874 0,-0.2369 -0.01501,-0.36802 -0.0656,-0.46991 -0.0035,-0.007 -0.0091,-0.0139 -0.01303,-0.0209 z m 9.97888,4.19617 -1.367398,0.11446 c -0.388323,0.60013 -0.784506,1.88394 0.450836,3.27775 0.443112,0.29388 1.511627,0.37081 1.511627,0.37081 -1.413128,-1.52961 -1.089297,-3.09228 -0.595065,-3.76302 z" />
  </g>
</svg>
