<?xml version="1.0" encoding="UTF-8"?>
<svg width="91.344mm" height="52.168mm" version="1.1" viewBox="0 0 91.344 52.168" xmlns="http://www.w3.org/2000/svg"><g transform="translate(-48.819 -39.54)"><g transform="translate(-1.1421 1.11)"><g transform="matrix(.49539 0 0 .49539 80.561 38.43)" stroke-width="2.0186"><path d="m26.206 5.1677e-4c-0.03512 3.1e-4 -0.06797 0.017392-0.08837 0.045992-0.0306 0.0175-0.07042 0.022842-0.08992 0.047542-0.0387 0.0488-0.06348 0.10524-0.08217 0.16433-0.0374 0.11819-0.05041 0.24874-0.04341 0.3545 0.0372 0.56258 0.01231 0.88841 0.22221 1.5069 0.1258 0.33198 0.2783 0.66357 0.42995 0.94413 0.0769 0.14155 0.1496 0.26682 0.20929 0.36277 0.0597 0.0959 0.0945 0.15294 0.13953 0.19792 0.041 0.041 0.0885 0.1067 0.14056 0.19017-15.174 1.6431-27.043 14.544-27.043 30.144 0 12.295 7.3844 22.893 17.936 27.646 0.0425 0.60241 0.1122 1.2033 0.21084 1.804 0.1543 0.94098 0.40273 1.8527 1.0056 2.6221 0.66294 0.84566 1.5242 1.2628 2.6097 1.1741 0.57981-0.0474 1.1162-0.23779 1.619-0.51883 0.1543-0.0861 0.20748-0.05518 0.28164 0.08992 0.13571 0.26522 0.2857 0.52523 0.44855 0.77463 0.45457 0.6967 1.0187 1.2605 1.8598 1.4712 0.31771 0.0483 0.76657 0.05753 1.0635-0.02066 0.7044-0.1964 1.246-0.62222 1.6914-1.1824 0.0919-0.11541 0.14293-0.13447 0.24081-0.01344 0.17225 0.21328 0.38276 0.39002 0.59583 0.5612 1.051 0.84503 2.2746 0.77746 3.2241-0.1757 0.44111-0.44302 0.74715-0.97325 0.97669-1.5477 0.0616-0.1543 0.10154-0.18204 0.26097-0.10232 0.88392 0.44153 1.72 0.34483 2.481-0.2837 0.62725-0.51782 1.1444-1.3925 1.3829-2.1534 0.031-0.0985 0.13157-0.24847 0.03307-0.30489-4e-3 -0.0021-7e-3 -0.0021-0.01035-0.0041 0.73011 0.0302 1.282-0.30256 1.6113-0.95033 12.23-3.9095 21.125-15.384 21.125-28.886 0-16.709-13.615-30.324-30.324-30.324v5.291e-4c-0.41247 0-0.82247 0.010589-1.2309 0.027389-0.0059-0.14398-0.0047-0.2856 0.0083-0.41961 0.0408-0.34657 0.06549-0.53665 0.0155-0.69505-0.02511-0.0795-0.0761-0.14529-0.13901-0.19327-0.063-0.048-0.13579-0.082697-0.22531-0.12351-0.13796-0.0629-0.35266-0.089101-0.56896-0.11162-0.19601-0.0204-0.35958-0.029106-0.45424-0.031006-0.55589-0.397-0.75613-0.8622-0.98547-1.3462-0.054-0.199-0.109-0.37098-0.18552-0.50178-0.05676-0.09712-0.15618-0.13423-0.25164-0.17262-0.01684-0.0406-0.05629-0.067296-0.10025-0.067696zm0 0.21962c0.059 0 0.10269 0.030005 0.16226 0.13177 0.0596 0.10182 0.11608 0.2652 0.17002 0.46664 0.0016 6e-3 0.0039 0.012603 0.0067 0.018603 0.22942 0.48414 0.45335 1.0152 1.0738 1.449 0.01855 0.0127 0.04057 0.01942 0.06304 0.01912 0.0617 0 0.26957 0.010339 0.47852 0.032039 0.20895 0.0218 0.43462 0.062918 0.50074 0.093018 0.0864 0.0394 0.14723 0.070585 0.18345 0.098185 0.0362 0.0276 0.05023 0.046583 0.06253 0.085783 0.02471 0.0784 0.01651 0.25911-0.02429 0.60565-1.8e-4 6.879e-4 -2.54e-4 0.00106-5.29e-4 0.00206-0.014 0.14439-0.01535 0.29553-0.0093 0.44907 0.0019 0.0684 0.0093 0.14047 0.0181 0.23203 0.0088 0.0916 0.01648 0.15326 0.03617 0.26458 0.01969 0.11133 0.04368 0.21615 0.07183 0.32039 0.01064 0.0396 0.01979 0.079501 0.05374 0.1819 0.03393 0.10239 0.05202 0.15165 0.0956 0.25735s0.06967 0.16227 0.12557 0.27233c0.05591 0.11006 0.10234 0.19121 0.15296 0.26975 0.15993 0.24988 0.32558 0.50391 0.46406 0.71934 0.15146 0.23882 0.30717 0.48206 0.4346 0.68988 0.13997 0.23363 0.28242 0.47208 0.39584 0.67696v5.292e-4c0.06217 0.1126 0.12286 0.22517 0.18087 0.33848 0.06047 0.11806 0.11803 0.2402 0.16743 0.34261v5.292e-4c0.05345 0.11472 0.10444 0.22991 0.15296 0.34675v5.292e-4c0.04852 0.11684 0.09475 0.23483 0.13798 0.3545 0.04581 0.126 0.08609 0.25595 0.12144 0.36484v5.292e-4c0.03754 0.12321 0.07239 0.24824 0.10387 0.37569v5.291e-4c0.03148 0.12745 0.0597 0.25724 0.08475 0.38964v5.3e-4c0.05011 0.26498 0.08746 0.5404 0.10955 0.82941v5.3e-4c0.01103 0.14444 0.01823 0.2924 0.0217 0.4439 2.64e-4 0.0162 0.0043 0.03233 0.0062 0.04703 0.06792 0.60759 0.18401 0.97413 0.41806 1.2128 0.69248 0.70627 1.2333 1.5281 1.7544 2.6722 0.30877 0.67787 0.64932 1.3778 0.77773 1.5896 0.12043 0.19859 0.45116 0.8592 0.74621 1.4764 0.14753 0.3086 0.28731 0.60822 0.39068 0.83871 0.0517 0.11524 0.0945 0.21355 0.12402 0.28577 0.01479 0.0361 0.01492 0.04992 0.03359 0.08682 0.01865 0.0369 0.04286 0.07779 0.07545 0.13694 0.0267 0.0268 0.0615 0.05873 0.10542 0.09663 0.0879 0.0759 0.21092 0.17516 0.35967 0.29249 0.2975 0.23466 0.69773 0.53871 1.1141 0.84749 0.41642 0.30877 0.84894 0.62192 1.2118 0.87695 0.36288 0.25504 0.64988 0.44923 0.79892 0.52865 0.1764 0.094 0.67228 0.45913 1.0599 0.7891 0.19771 0.16832 0.3899 0.32045 0.54209 0.43253 0.0761 0.056 0.14179 0.10154 0.19534 0.13488 0.0268 0.0167 0.05088 0.03054 0.07338 0.04134 0.02241 0.0109 0.03593 0.02377 0.08423 0.02377-0.019 0 0.01156 3e-3 0.05116 0.02997 0.0395 0.0266 0.09241 0.06999 0.154 0.12712 0.12314 0.11431 0.28083 0.28302 0.45578 0.48834 0.34989 0.41062 0.7716 0.96842 1.1581 1.5472 1.1522 1.7255 3.3251 4.2617 4.3512 5.0648 0.97522 1.2888 1.5818 2.1184 1.9627 2.6619 0.15782 0.34204 0.28936 0.54269 0.37724 0.68729 0.0799 0.13145 0.11292 0.22175 0.13126 0.35915-0.0608 0.0664-0.11567 0.12127-0.14883 0.12919-0.0421 0.01011-0.10836-0.0021-0.23719-0.06201-0.0827-0.0383-0.15851-0.0849-0.20929-0.12454-0.0254-0.01979-0.04433-0.03819-0.05323-0.04909-5e-3 -6e-3 -0.0051-0.0082-0.0041-0.0052-0.0044-0.0217-0.01519-0.04144-0.03101-0.05684-0.33467-0.31946-0.71128-0.51675-1.0738-0.78962l0.0088 0.0072c-0.10971-0.10221-0.25632-0.14277-0.39274-0.16536-0.13642-0.0226-0.2662-0.02479-0.34416-0.02479-0.11663 0-0.4598-0.0725-0.70383-0.16072-0.21302-0.077-0.29601-0.12075-0.3359-0.18965-0.0399-0.0689-0.05478-0.21477-0.05478-0.50798 0-0.29229-0.01511-0.48784-0.11679-0.678-0.10174-0.19016-0.27536-0.35866-0.57619-0.63097h-5.29e-4c-0.29055-0.26152-0.30678-0.31367-1.1105-0.78238-0.77609-0.45258-2.38-1.8044-3.1032-3.0634l-5.29e-4 -5.3e-4c-7.94e-4 -0.0011-0.0021-0.0031-0.0031-0.0041-0.64648-1.2842-1.3448-1.8801-2.9027-2.481-0.2127-0.082-0.63024-0.27231-0.99994-0.4501-0.18485-0.0889-0.35839-0.1747-0.48938-0.24288-0.2409-0.12803-0.38457-0.24421-0.61495-0.38344-0.20022-0.11726-0.45684-0.259-0.72502-0.39946-0.24749-0.12961-0.65653-0.15783-1.1193-0.11007-0.6598 0.0681-0.78937 0.0154-1.4113-0.17518-0.29815-0.17686-0.59761-0.55886-0.86351-1.0392-0.26777-0.48373-0.50521-1.0628-0.70125-1.6185-0.39019-1.1061-0.6143-2.1079-0.6165-2.1177 4e-3 -0.0903 0.0083-0.10053 0.0083-0.3731 0-0.12141-0.0433-0.26056-0.10749-0.41083-0.0642-0.15027-0.15106-0.30725-0.2496-0.4408-0.42267-0.5729-0.7277-1.5653-0.71934-2.3585 0.0021-0.18905-0.01254-0.39419-0.03824-0.57671-0.02561-0.18253-0.0591-0.33798-0.10904-0.44648-0.54388-1.1825-0.758-1.9204-0.75292-2.543-9e-5 -0.0127-0.0013-0.02479-0.0021-0.03669-5.29e-4 -0.093-0.0061-0.19774-0.01757-0.31678-4.5e-5 -4.76e-4 4.5e-5 -0.0011 0-0.0021-7.93e-4 -0.01-0.0031-0.02182-0.0041-0.03152-0.01151-0.11325-0.02601-0.23385-0.04599-0.3669-0.02172-0.14465-0.04794-0.2993-0.07855-0.46406-0.03049-0.16446-0.06498-0.33834-0.10336-0.51986-0.09141-0.41969-0.18906-0.8389-0.2775-1.1906-0.11402-0.4429-0.2342-0.89088-0.3422-1.2676-0.12578-0.42943-0.25865-0.86759-0.37931-1.2371-0.1296-0.39598-0.26031-0.76956-0.38861-1.1028-0.083619-0.21717-0.16398-0.40812-0.24288-0.58601-0.008599-0.019201-0.017277-0.037728-0.025849-0.056328-0.15357-0.33877-0.30052-0.60385-0.44545-0.74879 3e-3 3e-3 -0.0511-0.067207-0.108-0.15865-0.0569-0.0914-0.12813-0.21342-0.20309-0.3514-0.14993-0.27596-0.31492-0.61716-0.41444-0.90951-0.2009-0.59184-0.17391-0.87669-0.21187-1.4511-5e-3 -0.0713 8e-3 -0.18854 0.03462-0.27389 0.0135-0.0427 0.03092-0.077034 0.04393-0.093534 0.0028-0.002895 0.0048-0.006859 0.0067-0.009819zm15.457 7.1872c0.12068-0.00201 0.25042 0.0381 0.38758 0.10697l1.3746 0.68988c0.75671 0.37979 1.5734 1.0024 1.0702 2.005-0.19306 0.38466-0.5849 0.64596-1.0992 0.601l-0.0062 0.01292c0.41595 0.36665 0.56034 0.86555 0.24701 1.4898-0.47791 0.95219-1.4502 0.95379-2.3456 0.50436l-1.5193-0.76274c-0.36574-0.18357-0.53283-0.44918-0.30179-0.9095l1.6712-3.3295c0.1444-0.2877 0.32029-0.40535 0.52142-0.40824zm0.43666 1.079-0.55707 1.1095 0.85163 0.42736c0.48555 0.2437 0.81695 0.16514 0.99736-0.1943 0.21838-0.4351-0.08766-0.73814-0.47232-0.93121zm-0.88625 1.7653-0.61392 1.2237 0.87023 0.43667c0.40357 0.20256 0.89899 0.3482 1.1617-0.17518 0.27535-0.54861-0.16939-0.85837-0.67386-1.1116zm5.9051 0.6997c0.55898-7e-3 1.1423 0.20267 1.7022 0.66869 1.2798 1.0652 1.2655 2.4943 0.31316 3.6385-0.91624 1.1009-2.3825 1.5604-3.7166 0.4501-1.3991-1.1645-1.2155-2.554-0.23151-3.7362 0.5357-0.64364 1.214-1.0117 1.9327-1.0211zm-17.928 0.42323c6e-6 5e-3 0.0011 0.01382 0.0011 0.01912-6e-3 0.67408 0.2239 1.4425 0.77308 2.6365 0.0293 0.0638 0.06675 0.21403 0.09095 0.38551 0.0241 0.17148 0.03798 0.3684 0.03617 0.54415-9e-3 0.84965 0.29895 1.8629 0.76223 2.4908 0.0862 0.11682 0.16723 0.26214 0.22479 0.39688 0.0576 0.13476 0.08992 0.26385 0.08992 0.32453 0 0.28282-0.0053 0.27304-0.0093 0.38292-1.67e-4 9e-3 7.94e-4 0.0188 0.0031 0.02791 0 0 0.22964 1.0269 0.62684 2.1528 0.1986 0.56297 0.43918 1.1516 0.71624 1.6521 0.27705 0.5005 0.58752 0.91558 0.95085 1.1276 0.0073 5e-3 0.01511 8e-3 0.02326 0.01085 0.63999 0.19575 0.83151 0.25917 1.5152 0.18862 0.43757-0.0452 0.83368 9.53e-4 0.99477 0.08578 0.26529 0.13894 0.51941 0.27984 0.71572 0.39481 0.2165 0.13029 0.42354 0.2794 0.62425 0.38809 0.13428 0.0699 0.30921 0.15687 0.49558 0.2465 0.37273 0.17924 0.78857 0.36873 1.017 0.45682 1.5364 0.59258 2.1567 1.123 2.7885 2.3802 0.0011 0.0021 0.0021 0.0032 0.0031 0.0052 0.75705 1.3221 2.3605 2.6676 3.1864 3.1492 0.79924 0.46609 0.77576 0.48676 1.0744 0.75551 0.29806 0.2698 0.45277 0.42725 0.52968 0.57103 0.0769 0.14378 0.09095 0.29021 0.09095 0.57516 0 0.2971 5.29e-4 0.47331 0.08423 0.61805 0.0838 0.14474 0.23262 0.20657 0.45165 0.28577 0.26562 0.0961 0.58942 0.17415 0.77825 0.17415 0.0748 0 0.19323 0.0021 0.30851 0.02119 0.11528 0.0191 0.22353 0.0583 0.27854 0.10955 0.0028 0.0021 0.0057 0.0047 0.0088 0.0067 0.37896 0.28522 0.74628 0.47957 1.0532 0.77205 8e-3 0.01259 0.01 0.03374 0.0186 0.04444 0.0244 0.0295 0.05365 0.05556 0.08785 0.08217 0.068 0.0531 0.15534 0.10603 0.25218 0.15089 0.14219 0.0659 0.25907 0.1047 0.37982 0.07596 0.12075-0.0288 0.20827-0.11625 0.30851-0.23978 0.01783-0.02191 0.02654-0.04993 0.02429-0.07803-0.01691-0.20627-0.0851-0.34395-0.1788-0.49816-0.0937-0.15422-0.21532-0.33598-0.37104-0.67644-0.0029-6e-3 -0.0064-0.01164-0.01035-0.01707-0.38423-0.54834-0.99356-1.3823-1.9756-2.6799-0.0058-8e-3 -0.01254-0.01468-0.02016-0.02066-0.95842-0.74368-3.1777-3.3185-4.3186-5.0271-0.39127-0.58596-0.81656-1.1489-1.1736-1.5679-0.1785-0.20949-0.33977-0.38295-0.47336-0.50695-0.0668-0.062-0.12608-0.11144-0.18087-0.14831-0.06463-0.0481-0.15951-0.06763-0.16226-0.06873-0.08341-0.0441-0.1667-0.10894-0.23358-0.15555-0.14643-0.10784-0.336-0.25842-0.5302-0.42375-0.39626-0.33733-0.8719-0.69435-1.0992-0.81545-0.1192-0.0635-0.41493-0.26014-0.77566-0.51366-0.36072-0.25353-0.79254-0.56654-1.2077-0.87436-0.41515-0.30783-0.8138-0.61042-1.1085-0.84284-0.14734-0.1162-0.26868-0.21539-0.35192-0.28732-0.0416-0.036-0.07404-0.06505-0.09354-0.08475-8e-3 -8e-3 -0.01156-0.0122-0.01447-0.0155-3e-3 -0.0118-0.0049-0.02579-0.01034-0.03979-9e-3 -0.0267-0.02162-0.05915-0.03721-0.09715-0.0312-0.0762-0.0743-0.17594-0.12661-0.29249-0.10453-0.2331-0.24517-0.53357-0.39326-0.84336-0.29619-0.61958-0.61786-1.2674-0.75654-1.496-0.10426-0.17193-0.45833-0.89179-0.76533-1.5658-0.52845-1.1601-1.0851-2.0094-1.7973-2.7358-0.17657-0.18009-0.28495-0.48316-0.3514-1.0423 11.723 0.86862 20.908 10.598 20.908 22.55 0 9.9532-6.3695 18.366-15.27 21.403 0.0021 0.0011 0.0037 0.0032 0.0057 0.0052-0.11041-0.075-0.22491-0.14481-0.34468-0.20619-0.29308-0.15019-0.57537-0.22034-0.84129-0.21188-0.4432 0.0141-0.84019 0.24656-1.1617 0.68988-0.31501 0.43448-0.50205 0.92868-0.64182 1.4407-0.35476 1.3013-0.54609 2.6169-0.12764 3.9357 0.48256 1.5212 1.4651 2.5185 3.0985 2.7575 0.0647 9e-3 0.12742 0.01535 0.18965 0.01963-0.0635 0.0271-0.10946 0.13414-0.15968 0.19068-0.39088 0.44132-0.92973 1.0747-1.4035 1.4335-0.82301 0.62319-1.6208 0.65581-2.4898 0.09664-0.62746-0.40371-1.0963-0.96713-1.5648-1.5358-0.33724-0.40947-0.52455-0.86856-0.60875-1.386-0.10985-0.67555-0.1608-1.3554-0.19586-2.0376-3e-3 -0.0669 0.04065-0.15716-0.05994-0.19327-0.044 0.01561-0.04601 0.0494-0.04961 0.0832-0.0893 0.85122-0.11884 1.7026-0.03101 2.5559 0.0438 0.42422 0.19772 0.80486 0.42426 1.1658 0.4894 0.77963 1.044 1.4991 1.789 2.0541 0.0716 0.0532 0.10858 0.0899 0.03462 0.1788-0.44837 0.54005-0.90071 1.0753-1.5188 1.4345-0.48449 0.28124-0.98269 0.30214-1.496 0.07751-0.55993-0.24492-1.0108-0.63226-1.4149-1.0785-0.84267-0.93029-1.471-2.0075-2.0893-3.0897-0.14939-0.26116-0.19759-0.55961-0.20464-0.86351-0.01709-0.75462 0.22207-1.4425 0.53537-2.112 0.0624-0.13378 0.13165-0.26416 0.20154-0.40308-0.13079-0.0327-0.14676 0.0511-0.18138 0.10128-0.37699 0.54454-0.65974 1.1323-0.81959 1.7777-0.17717 0.71466-0.12379 1.3942 0.22221 2.0603 0.55095 1.06 1.0837 2.1292 1.833 3.0696 0.0985 0.12353 0.04587 0.1641-0.05943 0.22479-0.27334 0.15794-0.54967 0.30737-0.83819 0.43666-0.86211 0.38639-1.6383 0.26121-2.3513-0.35812-0.6576-0.57148-1.1157-1.2839-1.5115-2.0464-0.4676-0.90079-0.78014-1.8752-1.2614-2.7647-0.45585-0.84202-0.39562-1.6084 0.07906-2.3906 0.0235-0.0387 0.07964-0.0785 0.0052-0.13384-0.0171 7e-3 -0.04508 9e-3 -0.05788 0.02429-0.36481 0.42722-0.58422 0.91248-0.62632 1.4805-0.0365 0.4896 0.15954 0.91469 0.31212 1.3586 0.35412 1.0307 0.6507 2.0818 1.1271 3.067 0.0729 0.15089 2e-3 0.17294-0.11524 0.19068-0.31223 0.0466-0.62213 0.11428-0.93586 0.14056-1.1051 0.0923-1.9894-0.28246-2.5931-1.247-0.30561-0.48833-0.54212-1.0092-0.70177-1.558-0.54518-1.8753-0.69755-3.7906-0.50178-5.7294 0.097-0.96085 1.8341-3.366 2.4908-4.1217-0.0245-0.10691-0.09239-0.12708-0.17002-0.12764v-0.0011c-0.0259-1.91e-4 -0.05278 0.0021-0.07958 0.0041-0.0896 0.0683-0.26078 0.23442-0.4687 0.4501-7.4958-3.6758-12.634-11.373-12.634-20.313 0-12.147 9.4862-21.998 21.483-22.585zm18.199 0.61753c-0.46661-0.0135-0.92536 0.25315-1.3147 0.72089-0.62286 0.74837-0.89715 1.5849-0.06201 2.28 0.80803 0.67251 1.6085 0.27347 2.2314-0.47491 0.62287-0.74837 0.70704-1.5775-0.01963-2.1823-0.2725-0.22681-0.55513-0.33558-0.83509-0.34365zm4.6509 3.0587c0.18044-0.0131 0.35522 0.06961 0.48679 0.2465 0.21052 0.28308 0.15857 0.60347-0.11886 0.80977l-2.2309 1.6588c-0.55484 0.41261-0.57199 0.90907-0.17622 1.4413s0.87608 0.6586 1.4309 0.24598l2.2309-1.6588c0.27742-0.20631 0.59925-0.16422 0.80977 0.11886 0.21052 0.28308 0.15805 0.60294-0.11937 0.80925l-2.157 1.6046c-1.121 0.83365-2.1383 0.51758-2.9425-0.56379-0.80418-1.0814-0.81404-2.147 0.30696-2.9807l2.157-1.604c0.10403-0.0774 0.2142-0.11977 0.32246-0.12764zm-44.108 0.41289c0.15673-0.0107 0.31765 0.0467 0.46147 0.17105l3.0112 2.6045 1.3911-1.6087c0.23862-0.2759 0.57248-0.3773 0.83664-0.14883 0.26416 0.22846 0.21227 0.57366-0.02636 0.84956l-1.7363 2.0076c-0.29446 0.34047-0.62258 0.44654-1.0511 0.07596l-3.2577-2.8174c-0.28764-0.24877-0.31896-0.60463-0.065112-0.89814 0.12693-0.14676 0.27942-0.22498 0.43615-0.23564zm-2.5203 3.8737c0.04496 8.2e-4 0.09293 5e-3 0.14469 0.01395l4.4876 0.71314c0.13125 0.019 0.36592 0.0593 0.48834 0.12661 0.27205 0.14955 0.35908 0.50758 0.20206 0.79323-0.13459 0.24485-0.32041 0.37288-0.58291 0.33486l-0.97307-0.16278-0.98702 1.7952 0.65526 0.74104c0.17651 0.19445 0.17888 0.39983 0.033073 0.66508-0.16824 0.30606-0.47434 0.41203-0.7736 0.24753-0.12242-0.0673-0.28206-0.24354-0.36845-0.34416l-3.0231-3.5393c-0.1993-0.23355-0.19038-0.45917-0.040824-0.73122l0.14573-0.2651c0.12104-0.22019 0.27754-0.39386 0.59221-0.38809zm0.54364 1.1896-0.00775 0.01344 1.603 1.7405 0.71779-1.3059zm49.59 0.02325c0.27875-0.0195 0.45397 0.15168 0.57774 0.43253l0.7767 1.7627c0.55485 1.259 0.01236 1.8991-0.58808 2.1637-0.5036 0.22194-1.132 0.14439-1.4702-0.30799l-0.01291 0.0057c0.16153 0.57648-0.18963 0.84649-0.66094 1.0542-0.53588 0.23617-0.67345 0.46653-0.89297 0.56327-0.24534 0.10813-0.52388-0.0694-0.632-0.31471-0.25608-0.58107 0.2856-0.87401 0.47284-0.95653 0.8135-0.35851 1.0772-0.65192 0.82114-1.233l-0.46095-1.0459-1.3622 0.59996c-0.31636 0.13942-0.62048 0.0267-0.76275-0.29611-0.14227-0.32282-0.02024-0.62332 0.29611-0.76274l3.5832-1.5792c0.11783-0.0519 0.22231-0.07928 0.31523-0.08578zm-0.04238 1.2304-1.2526 0.5519 0.46664 1.0588c0.17641 0.4003 0.4563 0.75499 0.97927 0.52452 0.49714-0.2191 0.49271-0.57952 0.28784-1.0444zm-52.005 1.4232c0.04553 4e-3 0.09411 0.01261 0.14521 0.02791 0.09663 0.029 0.20873 0.08699 0.33435 0.18138l3.7584 2.8138c0.31144 0.23123 0.31429 0.49112 0.2005 0.87023-0.11379 0.37911-0.25968 0.59499-0.64699 0.6165l-4.6731 0.2341c-0.15685 0.01-0.28215-4e-3 -0.37879-0.03256-0.40884-0.12272-0.44908-0.47503-0.3576-0.7798 0.09817-0.32707 0.32266-0.45413 0.72037-0.4563l3.9729-0.0072 0.00414-0.01497-3.2985-2.2376c-0.33077-0.22083-0.44858-0.45082-0.3638-0.73329 0.08004-0.26668 0.26422-0.50811 0.58291-0.48214zm54.294 3.1517c0.36244-0.0177 0.55476 0.18133 0.63665 0.60565 0.04546 0.23554-0.0043 0.461-0.1881 0.6258l-2.8241 2.6071 0.0031 0.01394 2.958-0.57103c0.36717-0.0709 0.58716 0.10238 0.65267 0.44183 0.06551 0.33946-0.07415 0.58233-0.44132 0.65319l-3.9145 0.75499c-0.4503 0.0869-0.74388-0.0573-0.83612-0.53537-0.06953-0.36024-0.01606-0.49305 0.18448-0.68265l2.7363-2.5756-0.0026-0.01394-2.8748 0.55449c-0.36717 0.0709-0.58768-0.10186-0.65319-0.44132-0.06551-0.33945 0.07466-0.58232 0.44183-0.65319l3.9558-0.76326c0.05888-0.0114 0.1141-0.01807 0.16588-0.02067zm-32.119 2.3045s-0.04766 0.02506-0.02942 0.09124c0.15663 0.58071 0.29576 1.0493 0.31213 1.4955 0.0163 0.44542-0.0839 0.87226-0.41961 1.3963-0.16717 0.19835-0.35768 0.35707-0.49454 0.5793l-5.29e-4 5.29e-4c-0.0659 0.10849-0.10975 0.18919-0.13591 0.26665-0.0262 0.0774-0.03174 0.15347-0.01964 0.22428 0.0106 0.0623 0.0339 0.12381 0.0739 0.17673 0.04 0.0529 0.092 0.0964 0.16123 0.14624 0.0335 0.0241 0.06808 0.04757 0.09819 0.06666 0.0234 0.01479 0.04073 0.02432 0.06253 0.03462 5.29e-4 5e-3 0.0018 0.01847-0.0062 0.04496l-0.01964 0.0646c-0.01259 0.0411-6.6e-5 0.08569 0.03204 0.1142l0.08837 0.07855 1.7058 1.5849 0.22893 0.14676c0.0634 0.0406 0.12208 0.07745 0.22066 0.13022 0.09857 0.0528 0.12858 0.06687 0.15968 0.08217 0.30543 0.15049 0.64601 0.19006 0.91984 0.1819 0.19942-6e-3 0.3995-0.0154 0.60358-0.04031 0.0555 3e-3 0.10868 0.0042 0.15089 0.0052 0.49271-0.16702 1.2134-0.61962 1.5477-1.0702 0.33432-0.4506 0.61694-1.1912 0.57878-1.7038h5.29e-4c-0.02241-0.4773-0.1353-0.9721-0.41961-1.3632-0.26353-0.16182-0.46947-0.48362-0.16433-0.7183 0.20774-0.26928 0.26969-0.69749-0.0011-0.94826-0.28688-0.25835-0.68124-0.37489-1.0599-0.40669-0.42479-7e-3 -0.83345 0.30458-0.9462 0.71107 0.0231 0.21963 0.0658 0.51069-0.23926 0.34778-0.15248-0.0553-0.15756-0.05867-0.15756-0.05867-0.12046 0.13625-0.32545 0.50113-0.38866 0.63279 0.24004 0.12724 0.5002 0.26684 0.67645 0.46974 0.0521 0.26375 0.24617 0.45926 0.27078 0.72657 0.0383 0.26502-0.24749 0.43661-0.48369 0.39946-0.0645 6e-3 -0.20953-0.01138-0.12816 0.04961-0.22966 0.0412-0.56008 0.0812-0.43202 0.39119 0.0417 0.23079 0.34352-0.20678 0.22893 0.1142-0.0496 0.28265 0.43676 0.02209 0.31781 0.36484 0.0603 0.26793-0.08344 0.5525 0.01394 0.78651 0.12421 0.0857 0.24807 0.12769 0.32143 0.23926 0.07049 0.10724 0.08498 0.24638 0.08888 0.37466 4e-3 0.15033 0.01384 0.32688-0.05736 0.45423-0.10865 8e-3 -0.21636 0.01892-0.32763 0.02223-0.2463 7e-3 -0.55561-0.0314-0.81597-0.15968-0.0331-0.0163-0.06474-0.03141-0.1111-0.05271-0.04636-0.0213-0.06387-0.03134-0.08527-0.04444-0.0427-0.02609-0.10044-0.06291-0.16278-0.10284l-0.20722-0.13229-0.03876-0.06614c-0.64265-0.58554-1.6882-1.709-1.6882-1.709s-0.0587-0.11343-0.11731-0.13591c0.0135 5e-3 -0.01648-9e-3 -0.04237-0.02532-0.0259-0.0164-0.05743-0.03793-0.08733-0.05943-0.0617-0.0444-0.09609-0.07583-0.1142-0.09973-0.0181-0.02389-0.02524-0.04175-0.03204-0.08165-7e-3 -0.0419-6e-3 -0.06791 0.01085-0.1173 0.0167-0.0493 0.0524-0.12003 0.11472-0.22273l5.29e-4 -5.3e-4c0.1138-0.18449 0.29933-0.34088 0.48317-0.56121 0.0028-3e-3 0.0054-7e-3 0.0078-0.01085 0.35621-0.55501 0.4736-1.04 0.45579-1.5255-0.0156-0.42458-0.14709-0.86593-0.27957-1.3513-0.086-0.05089-0.19753-0.18738-0.22274-0.22766zm-18.998 0.55428c0.30932 0.02641 0.53362 0.31806 0.50591 0.64285-0.023749 0.27839-0.1415 0.47092-0.39688 0.5426l-0.95601 0.24546-0.17415 2.0417 0.89969 0.41186c0.2402 0.10618 0.32546 0.29218 0.29972 0.59376-0.02969 0.34799-0.26643 0.56957-0.60668 0.54054-0.13919-0.011906-0.35669-0.1084-0.47646-0.16536l-4.1987-2.0097c-0.27688-0.13268-0.36022-0.34232-0.33383-0.65164l0.025838-0.30127c0.02441-0.28612 0.11567-0.53577 0.52193-0.6413l4.3915-1.1674c0.12769-0.0358 0.35897-0.09396 0.49816-0.08216zm-1.7518 1.6345-2.2965 0.52813-0.00103 0.0155 2.1704 0.94103zm53.816 1.4247c0.39506 6e-3 0.52302 0.36853 0.51935 0.59428-0.0045 0.27513-0.11905 0.4-0.34675 0.51625l-1.8717 0.97875 1.8386 1.032c0.25179 0.13818 0.33464 0.26658 0.33073 0.50643-0.0034 0.21164-0.14341 0.56919-0.53847 0.56276-0.10582-0.0021-0.211-0.0459-0.30179-0.10387l-2.3332-1.4562-1.4955-0.02429c-0.34568-6e-3 -0.5747-0.23535-0.56896-0.58808 0.0057-0.35273 0.24188-0.57459 0.58756-0.56896l1.496 0.02429 2.3792-1.3792c0.09263-0.055 0.19907-0.09575 0.30489-0.09405zm-52.429 2.2402v5.29e-4c0.27507 0.0285 0.44879 0.27485 0.48731 0.59169l0.32039 2.635c0.05432 0.44685-0.08715 0.76104-0.64957 0.82941l-4.2762 0.51987c-0.37752 0.0459-0.66165-0.16979-0.70848-0.55501s0.17749-0.66259 0.555-0.70848l3.9522-0.48059-0.25632-2.111c-0.04402-0.36211 0.10547-0.67719 0.45217-0.71934 0.04334-5e-3 0.08421-0.0061 0.12351-0.0021zm48.742 5.0746c0.32913 0.01159 0.66936 0.07891 1.0077 0.19068 1.628 0.53774 2.1895 1.8526 1.696 3.3466-0.40275 1.2193-1.3479 1.6284-1.7766 1.4867-0.38188-0.12614-0.38958-0.44093-0.31213-0.67541 0.17924-0.54266 0.87015-0.09181 1.2242-1.1638 0.25006-0.75705-0.04882-1.517-1.2681-1.9198-0.95134-0.31424-1.7628-0.06209-2.0593 0.83561-0.19252 0.58286 0.03482 1.2229 0.60668 1.4712l0.23668-0.71675c0.07745-0.23448 0.25052-0.46721 0.58549-0.35657 0.26798 0.0885 0.37133 0.29324 0.2806 0.56792l-0.447 1.3534c-0.10622 0.32158-0.30882 0.39568-0.6103 0.29611l-1.8159-0.59945c-0.20098-0.0664-0.31746-0.27604-0.24443-0.49712 0.10401-0.31488 0.32683-0.33766 0.77773-0.26303-0.29127-0.44544-0.40193-0.96512-0.17622-1.6485 0.42156-1.2763 1.3076-1.7429 2.295-1.7079zm-27.546 0.57412c-0.12272-0.0021-0.2467 0.02535-0.48938 0.05374-0.24267 0.0284-0.53634 0.07132-0.75602 0.12506-0.22159 0.0542-0.37426 0.11282-0.46612 0.22686-0.0459 0.057-0.06993 0.13354-0.06253 0.20567 7e-3 0.0721 0.03933 0.13724 0.08423 0.20154 0.0898 0.12859 0.23778 0.25984 0.44183 0.41548 0.21024 0.16036 0.31641 0.262 0.37259 0.37517 0.0562 0.11317 0.07286 0.25881 0.07286 0.52193 0 0.22963 0.01122 0.38828 0.05271 0.50953 0.0208 0.0606 0.0511 0.11423 0.0987 0.15348 0.0476 0.0393 0.1098 0.05788 0.16743 0.05788 0.058 0 0.12073-0.01839 0.16846-0.05839 0.0477-0.04 0.07759-0.0944 0.09819-0.15606 0.0333-0.0999 0.03837-0.2536 0.04237-0.42375 1.83e-4 0.02339 0.0031 0.03698 0.0031 0.06098-0.0011 0.25884 0.01347 0.46642 0.04496 0.6227 0.01569 0.0781 0.03476 0.14373 0.06356 0.19947 0.0287 0.0557 0.0697 0.10784 0.13643 0.13074 0.0661 0.0227 0.15132 0.0011 0.20154-0.04599 0.0502-0.0469 0.0802-0.10805 0.10542-0.185 0.0505-0.1539 0.07752-0.37835 0.07752-0.69712 0-0.23804 0.01116-0.4207 0.02997-0.54053 3e-3 -0.02051 7e-3 -0.02733 0.01034-0.04393 0.043 0.0937 0.09541 0.24952 0.1509 0.46974 0.0936 0.37162 0.21068 0.64703 0.33796 0.81184 0.0636 0.0824 0.13094 0.14714 0.22996 0.15813 0.0495 5e-3 0.10392-0.01021 0.14366-0.04031 0.0397-0.0301 0.06663-0.0702 0.08733-0.11524 0.0011-0.0021 0.0021-0.0042 0.0031-0.0062 0.0245-0.0638 0.02318-0.12619 0.01757-0.20102-5e-3 -0.0628-0.01839-0.13665-0.03411-0.21342 0.70544 1.0632 0.12747 2.5378-0.87488 3.4137 3.1306 1.4654 2.9701 4.1365 0.93121 5.2834 0.12743 0.23527 0.37433 0.32508 0.49196 0.34468 3.872-0.4509 2.6647-5.0502 0.30231-5.609 1.4325-1.216 1.4342-3.5846-0.20257-4.5041-0.11547-0.16098-0.26271-0.348-0.68419-0.72864-0.42148-0.38064-0.81191-0.69337-1.386-0.77153-0.0041-5.29e-4 -0.0083-7.93e-4 -0.01241-0.0011zm-0.01241 0.22014 0.0011 5.29e-4h5.29e-4c0.5056 0.0705 0.84918 0.34075 1.5193 0.9188 0.15126 0.16453 0.34211 0.34005 0.4532 0.49661 0.09619 0.10272 0.17201 0.2957 0.12402 0.32814-0.07668 0.048-0.40781-0.34026-0.5488-0.49351-0.13529-0.14773-0.26752-0.27267-0.37672-0.35812-0.0546-0.0427-0.10254-0.07549-0.14935-0.09818-0.02339-0.0113-0.04578-0.02122-0.07648-0.02532-0.0306-4e-3 -0.0812-5.29e-4 -0.11886 0.03721-0.0399 0.0399-0.04028 0.0744-0.04237 0.1018-0.0021 0.0274 5.29e-4 0.05305 0.0036 0.08165 7e-3 0.0576 0.02254 0.12604 0.04444 0.20567 0.0438 0.15926 0.11434 0.36175 0.20257 0.57464 0.0843 0.20333 0.15128 0.41598 0.19017 0.58963 0.0195 0.0868 0.03167 0.1638 0.03617 0.22324 4e-3 0.058-0.0026 0.09911-0.0036 0.10284-6e-3 0.0113-9e-3 0.0154-0.01138 0.0186-0.0021-0.0021-0.0316-0.01352-0.0739-0.06822-0.0922-0.11944-0.20974-0.37745-0.29869-0.7307-0.0583-0.2314-0.11287-0.40092-0.16743-0.5178-0.0273-0.0584-0.0527-0.10408-0.0894-0.14211-0.01831-0.019-0.0397-0.03729-0.07079-0.04909-0.0311-0.0118-0.0735-0.0132-0.10749 0-0.068 0.02641-0.0921 0.0778-0.11162 0.12661-0.0195 0.0488-0.03304 0.10596-0.04392 0.1757-0.0218 0.13948-0.03308 0.32984-0.03307 0.57464 0 0.30568-0.02853 0.51514-0.06563 0.62838-0.01471 0.0448-0.02771 0.061-0.03721 0.0739-0.0021-4e-3 5.29e-4 5.29e-4 -0.0031-0.0052-0.01421-0.0275-0.03072-0.0765-0.04392-0.14211-0.02641-0.13121-0.0414-0.32882-0.04031-0.57878 0.0011-0.22103-0.01048-0.42168-0.03049-0.57206-0.01-0.0752-0.02143-0.13693-0.03772-0.1881-8e-3 -0.02561-0.01656-0.04838-0.03307-0.07338-0.01651-0.0249-0.0512-0.06563-0.11317-0.06563-0.0509 0-0.0872 0.02969-0.10594 0.05219-0.01881 0.02249-0.02872 0.04384-0.03772 0.06615-0.0181 0.0447-0.03022 0.0956-0.04083 0.15709-0.02119 0.12295-0.03359 0.2847-0.03359 0.4625 0 0.22825-0.01611 0.37887-0.04083 0.4532-0.01241 0.0372-0.025 0.05226-0.031 0.05736-6e-3 5e-3 -8e-3 0.0072-0.02739 0.0072-0.0195 0-0.02191-0.0021-0.02791-0.0072-6e-3 -5e-3 -0.01871-0.01939-0.03101-0.05529-0.02461-0.0718-0.04082-0.21805-0.04082-0.43874 0-0.27149-0.01389-0.4555-0.09509-0.61908-0.0812-0.16358-0.21932-0.28678-0.43615-0.45217-0.19652-0.14989-0.33222-0.27603-0.39532-0.36638-0.0315-0.0452-0.04349-0.0794-0.04547-0.0987-2e-3 -0.01929-8.2e-4 -0.02658 0.01447-0.04547 0.0304-0.0377 0.14442-0.10163 0.34778-0.15141 0.20337-0.0498 0.49148-0.09183 0.73587-0.12041 0.2444-0.0286 0.35947-0.05136 0.44442-0.05116zm8.1148 0.8816-1.8231 0.05013c0.82341 0.49013 2.8964 0.86818 2.7197 3.622l1.679-0.06821c0.10667-3.1105-1.9776-3.5941-2.5756-3.6039zm15.566 4.3295c0.10847-4e-3 0.22243 0.02596 0.33435 0.09147l1.2914 0.75499 2.7502-0.03462c0.10768-0.0021 0.22025 0.01429 0.31161 0.0677 0.34107 0.19945 0.2752 0.57818 0.16123 0.77308-0.1389 0.23753-0.30059 0.29-0.55604 0.27957l-2.111-0.06563 1.0961 1.8014c0.15159 0.24394 0.16089 0.3965 0.03979 0.60358-0.10684 0.18272-0.40461 0.42528-0.74569 0.22582-0.09136-0.0534-0.16119-0.14321-0.21188-0.23823l-1.3183-2.4138-1.2914-0.75499c-0.29844-0.17452-0.3853-0.48715-0.20722-0.79168 0.1113-0.19033 0.27603-0.29187 0.45682-0.29869zm-13.475 0.80977-1.5188 0.12661c1.0195 0.41171 0.80444 2.9255-1.0387 4.4736 0.29612 0.67929 0.83613 0.67696 0.83613 0.67696 2.1848-0.8167 3.1525-4.4244 1.7213-5.2772zm11.709 1.9994c0.13267 0.01191 0.25981 0.0825 0.36535 0.18138l3.0117 2.8226c0.33979 0.31841 0.19988 0.62251-0.01241 0.84904l-0.23151 0.24702c-0.24605 0.26257-0.46475 0.28945-0.82992 0.11162l-3.0685-1.4924-0.0098 0.01035 1.6986 2.9549c0.20114 0.35287 0.18817 0.57305-0.05788 0.83561l-0.22221 0.23668c-0.21228 0.22653-0.50615 0.38558-0.84594 0.06718l-3.0122-2.8221c-0.21108-0.1978-0.31512-0.48885-0.05943-0.76171 0.2557-0.27286 0.5527-0.18817 0.76378 0.0098l2.2965 2.1518 0.0093-0.01034-1.7224-3.0939c-0.12197-0.22067-0.0736-0.41664 0.09043-0.5917 0.16403-0.17504 0.35686-0.23659 0.58498-0.12919l3.1988 1.5188 0.0098-0.01035-2.296-2.1518c-0.21108-0.19781-0.31564-0.48885-0.05994-0.76171 0.12785-0.13643 0.26628-0.18348 0.39894-0.17157zm-23.287 0.93328s-2.3514 1.916-4.1455 1.0625c0.29611 0.67933 1.1498 1.481 1.1498 1.481 2.5083-0.3658 4.0933-1.5332 4.0933-1.5332z"/><path d="m26.953 39.202c3e-3 -0.2582-0.18352-1.959-8e-3 -2.2862 0.0721-0.13471 0.14416-0.86824 0.16012-1.6301 0.036-1.1043 0.18873-2.8347 0.65564-3.6958 0.12305-0.21084 0.19749-0.33353 0.30875-0.48776 0.13036-0.21943 0.19972-0.30913 0.38252-0.63914 0.24564-0.33283 0.79197-0.64634 0.67768-1.1853 9e-3 -0.38038 0.0113-0.66414 0.17506-1.0109 0.16375-0.34674 0.24692-0.70977 0.53166-1.7951s0.7731-1.8403 0.97593-2.7023c0.10739-0.47308 0.34854-0.68082 0.69007-0.68082 0.63927 0.39582 1.496 0.56155 2.0839 0.53501 0.28774-6e-3 0.59716-0.0334 0.48206-0.0755-1.0443-0.40049-1.9431-2.7757-1.2968-3.7619 0.43555-0.66473 1.8228-0.96048 2.7875-0.59427l0.39274 0.14909-0.40023-0.41817c-0.25543-0.26687-0.65377-0.47899-1.1009-0.58627-1.179-0.28282-3.2904 8e-3 -3.8416 0.52842-0.79034 0.45634-1.5571 0.87879-2.204 1.3635-1.0775 0.73501-2.0256 1.7334-2.6402 2.8601-1.242 2.3616-1.2004 2.2422-1.052 3.0251 0.1976 1.042 0.86936 2.6836 1.1323 2.767 0.45187 0.14341 0.58476 0.64805 0.33067 1.2558-0.94316 2.2559-1.3564 6.2859-0.85795 8.3679 0.12859 0.53711 0.25097 1.1649 0.27198 1.3951 0.0348 0.38094 0.0883 0.42223 0.59685 0.45975 0.31373 0.0231 0.61682 0.0251 0.7144-0.0725-4e-3 -0.5225 8e-3 -0.69956 0.0522-1.0848z" fill="#15a0db"/><path d="m22.101 41.112-1.7275 0.42116c0.13096 2.1043-0.8103 6.609 0.86196 10.191 0.74576 0.15397 1.8903 0.15555 1.8903 0.15555-2.1504-3.868-0.93113-8.2784-1.0247-10.768zm13.507 0.15244-1.8231 0.05013c-2.1676 1.3543-3.0758 7.416 0.41083 10.221 0.74576 0.15396 1.7823 0.14573 1.7823 0.14573-3.4442-2.1234-2.6914-9.3595-0.37-10.416zm-8.9922 0.47853c-1.962 4.2878-0.49389 9.4224 0.87747 9.9002 0.99286 0.29612 1.8163 0.25454 1.9957 0.13487-1.7825-0.86879-2.6286-5.6056-1.3322-9.4284-7.94e-4 -0.0028-0.0013-5e-3 -0.0021-0.0078-0.05549-0.22022-0.1079-0.37604-0.1509-0.46974-0.0033 0.01659-0.0073 0.02342-0.01035 0.04393-0.01879 0.11984-0.02997 0.3025-0.02997 0.54053 0 0.31877-0.02701 0.54322-0.07752 0.69712-0.02521 0.07695-0.05522 0.1381-0.10542 0.185-0.05022 0.047-0.13544 0.06869-0.20154 0.04599-0.06673-0.02289-0.10773-0.07504-0.13643-0.13074-0.0288-0.05574-0.04786-0.12137-0.06356-0.19947-0.0315-0.15628-0.04596-0.36386-0.04496-0.6227 0-0.024-0.0029-0.03758-0.0031-0.06098-4e-3 0.17015-0.0091 0.32385-0.04237 0.42375-0.02061 0.06167-0.05049 0.11606-0.09819 0.15606-0.04774 0.04-0.11046 0.05839-0.16846 0.05839-0.05763 0-0.11983-0.01857-0.16743-0.05788-0.0476-0.03925-0.0779-0.09288-0.0987-0.15348-0.0415-0.12125-0.05271-0.2799-0.05271-0.50953 0-0.26312-0.01667-0.40876-0.07286-0.52193-0.0039-0.0079-0.01008-0.01548-0.01447-0.02326zm11.084 4.6607-1.5188 0.12712c-0.43131 0.66657-0.87135 2.0925 0.50074 3.6406 0.49216 0.32642 1.679 0.41186 1.679 0.41186-1.5696-1.6989-1.2099-3.4346-0.66094-4.1796z" fill="#0a0"/></g><path d="m63.957 76.705h-1.1496v4.8576h2.923l0.11916-0.91124h-1.8926zm5.2426 4.8576h1.2197l-1.465-4.8576h-1.3949l-1.465 4.8576h1.1916l0.24534-1.0444h1.4229zm-1.472-1.8786 0.5117-2.1449 0.5117 2.1449zm6.6095-2.9791h-1.1776l-0.86919 3.9604-0.92526-3.9604h-1.2127l1.4019 4.8576h1.43zm2.8383 4.8576h1.2197l-1.465-4.8576h-1.3949l-1.465 4.8576h1.1916l0.24534-1.0444h1.4229zm-1.472-1.8786 0.5117-2.1449 0.5117 2.1449zm4.4365-2.9791h-1.1496v4.8576h2.923l0.11916-0.91124h-1.8926zm7.1697 2.2851c0.44861-0.10514 0.89022-0.42758 0.89022-1.0444 0-0.91124-0.79909-1.2407-2.1029-1.2407h-1.3739v4.8576h1.5631c1.2197 0 2.1169-0.30842 2.1169-1.4159 0-0.78507-0.55376-1.0514-1.0935-1.1566zm-1.1005-1.472c0.55376 0 0.82012 0.13318 0.82012 0.53974 0 0.40656-0.25234 0.5888-0.72899 0.5888h-0.42758v-1.1285zm0.08411 3.2104h-0.42057v-1.3178h0.50469c0.49768 0 0.84115 0.18225 0.84115 0.67292 0 0.53273-0.38553 0.64488-0.92526 0.64488zm4.9552-4.1426c-1.3669 0-2.187 0.96031-2.187 2.5445 0 1.6192 0.82012 2.5515 2.187 2.5515 1.3739 0 2.194-0.96031 2.194-2.5515 0-1.6192-0.82012-2.5445-2.194-2.5445zm0 0.84115c0.65189 0 0.98835 0.47665 0.98835 1.7033 0 1.2337-0.32945 1.7103-0.98835 1.7103-0.63086 0-0.98134-0.47665-0.98134-1.7103 0-1.2267 0.33646-1.7033 0.98134-1.7033zm6.8408-0.72198h-1.1496v3.1964c0 0.62385-0.22431 0.92526-0.75002 0.92526-0.51871 0-0.74301-0.30141-0.74301-0.92526v-3.1964h-1.1496v3.2454c0 1.0234 0.62385 1.7314 1.8926 1.7314 1.2687 0 1.8996-0.75002 1.8996-1.7314zm3.6725 4.8576h1.2968l-1.2337-2.0678c0.63086-0.2944 0.93227-0.67292 0.93227-1.3108 0-1.0094-0.67992-1.479-1.9977-1.479h-1.5912v4.8576h1.1496v-1.8575h0.44861zm-1.444-4.0515h0.41356c0.56778 0 0.84115 0.20328 0.84115 0.67292 0 0.5117-0.26637 0.72899-0.77105 0.72899h-0.48366zm7.1562-0.8061h-1.0304v1.9627c0 0.77806 0.0911 1.4159 0.15421 1.8085l-1.437-3.7711h-1.43v4.8576h1.0234v-1.7804c0-0.89722-0.0911-1.5421-0.1472-1.9837l1.4019 3.7641h1.465zm4.8991 0h-1.2126l-0.89722 2.1379-0.89723-2.1379h-1.2547l1.5561 3.0421v1.8155h1.1496v-1.8225zm4.6392-0.11916c-1.2898 0-2.3202 0.89722-2.3202 2.5445 0 1.6613 0.74301 2.5515 2.208 2.5515 0.63787 0 1.2687-0.18926 1.7664-0.5117v-2.4043h-1.8575l0.11215 0.81311h0.63086v1.1005c-0.20328 0.11215-0.42057 0.16122-0.6589 0.16122-0.67292 0-1.0094-0.43459-1.0094-1.7103 0-1.2056 0.50468-1.7103 1.1846-1.7103 0.39254 0 0.6589 0.11916 0.97433 0.38553l0.59581-0.62385c-0.39954-0.35048-0.92526-0.59581-1.6262-0.59581zm6.4202 0.11916h-1.2127l-0.89722 2.1379-0.89722-2.1379h-1.2547l1.5561 3.0421v1.8155h1.1496v-1.8225zm4.9622 0h-1.458l-0.67992 3.2945-0.729-3.2945h-1.451l-0.36449 4.8576h1.1215l0.0841-1.8856c0.028-0.67993 0.028-1.2828-0.021-1.9977l0.79909 3.3716h1.0865l0.75003-3.3716c-0.0351 0.60282-0.021 1.3038 0.014 1.9837l0.0841 1.8996h1.1285z" stroke-dasharray="1.5875, 1.5875" stroke-linecap="round" stroke-width=".26458" style="paint-order:fill markers stroke;white-space:pre" aria-label="LAVAL BOURNY GYM"/><path d="m51.609 85.671q0.23142 0 0.4572 0.07338 0.23142 0.06773 0.28222 0.06773 0.09596 0 0.14676-0.02822 0.0508-0.02822 0.10724-0.11853h0.12982l-0.22578 1.1232-0.1016-0.01693q-0.01693-0.44591-0.15804-0.67733-0.13547-0.23707-0.52493-0.23707-0.28787 0-0.4572 0.15804-0.16369 0.1524-0.16369 0.41769 0 0.20884 0.09031 0.34996 0.09031 0.13547 0.46849 0.51929 0.38382 0.38382 0.508 0.60396 0.12982 0.22013 0.12982 0.49671 0 0.47978-0.32738 0.80716-0.32738 0.32173-0.8128 0.32173-0.21449 0-0.51364-0.1016-0.29351-0.1016-0.36689-0.1016-0.15804 0-0.21449 0.18627h-0.1016l0.19191-1.2587 0.11289 0.01129q-0.01129 0.07902-0.01129 0.12982 0 0.40076 0.23707 0.67169 0.23707 0.26529 0.58702 0.26529 0.31044 0 0.51929-0.21449 0.20884-0.22013 0.20884-0.53622 0-0.2032-0.12418-0.40076-0.12418-0.2032-0.3048-0.37253-0.17498-0.17498-0.34996-0.34996-0.17498-0.17498-0.29916-0.39511t-0.12418-0.45156q0-0.41204 0.28222-0.67733 0.28222-0.26529 0.72249-0.26529zm2.8956 3.144 0.06773 0.06773q-0.24836 0.28787-0.5588 0.45156-0.31044 0.15804-0.6096 0.15804-0.33302 0-0.54187-0.21449-0.2032-0.21449-0.2032-0.5588 0-0.41204 0.254-0.82973 0.254-0.41769 0.64911-0.68298 0.40076-0.26529 0.79587-0.26529 0.20884 0 0.32738 0.1016 0.12418 0.1016 0.12418 0.28222 0 0.36689-0.4064 0.65476-0.4064 0.28787-1.0386 0.37818l-0.15804 0.02258q-0.05645 0.22578-0.05645 0.34996 0 0.23142 0.14111 0.37253 0.14676 0.13547 0.38947 0.13547 0.18062 0 0.34996-0.08467 0.16933-0.09031 0.47413-0.33867zm-1.2587-0.5588q0.3048-0.07338 0.53058-0.18062 0.23142-0.10724 0.34996-0.20884 0.12418-0.1016 0.19756-0.22013 0.07338-0.11853 0.09031-0.19756 0.02258-0.07902 0.02258-0.15804 0-0.09596-0.05644-0.15804-0.0508-0.06209-0.14111-0.06209-0.21449 0-0.48542 0.28222-0.27093 0.27658-0.41204 0.65476zm2.9746 1.9812q0 0.04516-0.02258 0.08467-0.02822 0.04516-0.02822 0.06773 0 0.09031 0.11289 0.09031 0.36124 0 0.54751-0.9144l0.49671-2.3707h-0.508l0.03951-0.18062h0.51929q0.07338-0.23142 0.12418-0.38382 0.05645-0.1524 0.15804-0.36689 0.10724-0.21449 0.22013-0.34431t0.28222-0.22013q0.16933-0.09596 0.36689-0.09596 0.20884 0 0.34431 0.10724 0.14111 0.1016 0.14111 0.25964 0 0.09031-0.07338 0.15804-0.06773 0.06773-0.16369 0.06773-0.09596 0-0.1524-0.06209t-0.05644-0.16369q0-0.0508 0.02822-0.10724 0.02822-0.05644 0.02822-0.06773 0-0.06773-0.12418-0.06773-0.23707 0-0.40076 0.31044t-0.28787 0.97649h0.6096l-0.03387 0.18062h-0.61524l-0.4064 1.8062q-0.17498 0.77893-0.46284 1.1853-0.28787 0.41204-0.66604 0.41204-0.18627 0-0.31609-0.1016t-0.12982-0.24271q0-0.09596 0.06209-0.16369 0.05644-0.06773 0.14676-0.06773 0.09031 0 0.15804 0.06209 0.06209 0.06209 0.06209 0.1524zm4.0866-1.0386q0.02258 0 0.05644-0.01693 0.03387-0.02258 0.08467-0.06773 0.05644-0.04515 0.09031-0.07902 0.03387-0.03951 0.10724-0.11289 0.07902-0.07902 0.11289-0.11289l0.06773 0.05645q-0.31044 0.38382-0.46284 0.50236t-0.32173 0.11853q-0.22578 0-0.22578-0.23142 0-0.14111 0.12982-0.64911-0.37253 0.52493-0.60396 0.70556-0.23142 0.18062-0.53058 0.18062-0.27093 0-0.42333-0.16369-0.1524-0.16933-0.1524-0.46284 0-0.43462 0.24271-0.88618 0.24836-0.45156 0.62653-0.74507 0.38382-0.29351 0.74507-0.29351 0.37818 0 0.45156 0.32738l0.06209-0.27093 0.01693-0.01693 0.34431-0.03951 0.03951 0.01693q-0.0056 0.02258-0.03387 0.11853-0.50236 1.8401-0.50236 2.0489 0 0.07338 0.07902 0.07338zm-0.10724-1.7893q0-0.15804-0.09595-0.24836-0.09031-0.09596-0.24836-0.09596-0.31044 0-0.59267 0.36124-0.27658 0.36124-0.41769 0.75636-0.13547 0.38947-0.13547 0.6096 0 0.19191 0.09031 0.31044 0.09031 0.11289 0.23707 0.11289 0.26529 0 0.54187-0.3048 0.27658-0.31044 0.44591-0.73378 0.17498-0.42333 0.17498-0.76764zm1.4845 1.8175q0.12982 0 0.46284-0.44027l0.07338 0.06209q-0.24271 0.3556-0.41769 0.50236-0.17498 0.14111-0.37253 0.14111-0.25964 0-0.25964-0.32173 0-0.16369 0.12418-0.61524l0.27093-0.99907q0.0508-0.16933 0.0508-0.24836 0-0.08467-0.06773-0.10724-0.06209-0.02258-0.28787-0.02822v-0.09031q0.25964-0.02258 0.90311-0.14111l0.01693 0.01129-0.53058 1.9417q-0.05645 0.2032-0.05645 0.24836 0 0.02822 0.02822 0.05644t0.06209 0.02822zm0.22578-3.4036q0.07902-0.08467 0.19191-0.08467 0.11289 0 0.19756 0.09596 0.08467 0.09031 0.08467 0.21449 0 0.11853-0.08467 0.2032-0.07902 0.08467-0.19191 0.08467-0.12418 0-0.19756-0.07902-0.07338-0.08467-0.07338-0.22013 0-0.12982 0.07338-0.21449zm2.3481 1.6877q-0.10724 0-0.1524-0.0508-0.04516-0.0508-0.06773-0.1016-0.02258-0.0508-0.07338-0.0508-0.1524 0-0.44027 0.49107-0.19191 0.32173-0.31044 0.61524-0.11853 0.29351-0.33867 1.016h-0.42898l0.4572-1.6482q0.09031-0.32738 0.09031-0.46284 0-0.15804-0.19756-0.15804-0.05644 0-0.19191 0.02822v-0.09596q0.24836-0.03951 0.87489-0.1524l0.01693 0.01129-0.29916 1.2248q0.05644-0.14676 0.14676-0.32738 0.09596-0.18062 0.23707-0.40076 0.14111-0.22013 0.32173-0.36124 0.18062-0.14676 0.34996-0.14676 0.11853 0 0.19191 0.08467 0.07338 0.07902 0.07338 0.20884 0 0.27658-0.25964 0.27658zm1.9586 1.3039 0.06773 0.06773q-0.24836 0.28787-0.5588 0.45156-0.31044 0.15804-0.6096 0.15804-0.33302 0-0.54187-0.21449-0.2032-0.21449-0.2032-0.5588 0-0.41204 0.254-0.82973 0.254-0.41769 0.64911-0.68298 0.40076-0.26529 0.79587-0.26529 0.20884 0 0.32738 0.1016 0.12418 0.1016 0.12418 0.28222 0 0.36689-0.4064 0.65476-0.4064 0.28787-1.0386 0.37818l-0.15804 0.02258q-0.05644 0.22578-0.05644 0.34996 0 0.23142 0.14111 0.37253 0.14676 0.13547 0.38947 0.13547 0.18062 0 0.34996-0.08467 0.16933-0.09031 0.47413-0.33867zm-1.2587-0.5588q0.3048-0.07338 0.53058-0.18062 0.23142-0.10724 0.34996-0.20884 0.12418-0.1016 0.19756-0.22013 0.07338-0.11853 0.09031-0.19756 0.02258-0.07902 0.02258-0.15804 0-0.09596-0.05644-0.15804-0.0508-0.06209-0.14111-0.06209-0.21449 0-0.48542 0.28222-0.27093 0.27658-0.41204 0.65476zm3.4713-1.1063h-0.18627l-0.01129-0.08467q0.86924-0.12418 0.88053-0.12418 0.02822 0 0.02822 0.02258l-0.18062 0.61524q0.24836-0.34431 0.46849-0.49107 0.22013-0.14676 0.49671-0.14676 0.29916 0 0.47413 0.19191 0.17498 0.18627 0.17498 0.51364 0 0.67169-0.54187 1.2587-0.53622 0.58702-1.1515 0.58702-0.18627 0-0.37253-0.09596-0.20884 0.77329-0.20884 0.93698 0 0.16933 0.36124 0.16933v0.08467h-1.1571v-0.09031q0.07338 0 0.11853-0.01129 0.04516-0.0056 0.09031-0.03387 0.04516-0.02258 0.06773-0.05644 0.02258-0.02822 0.05644-0.1016 0.03387-0.06773 0.05644-0.14111 0.01693-0.06773 0.0508-0.2032 0.03387-0.13547 0.06209-0.27093 0.03387-0.12982 0.09031-0.34431 0.05644-0.22013 0.11289-0.43462 0.40076-1.5127 0.40076-1.5974 0-0.0508-0.06209-0.1016t-0.11853-0.0508zm1.6369 0.51929q0-0.48542-0.37253-0.48542-0.20884 0-0.42333 0.18627-0.20884 0.18062-0.31609 0.4572-0.12418 0.31609-0.24836 0.762-0.11853 0.44591-0.11853 0.58702 0 0.09031 0.07338 0.1524 0.07902 0.05644 0.19756 0.05644 0.33867 0 0.62653-0.3048 0.29351-0.3048 0.43462-0.69427 0.14676-0.38947 0.14676-0.71684zm1.2192 1.5804q0.09031 0 0.16933-0.07902 0.08467-0.07902 0.37253-0.43462l0.07338 0.0508q-0.27658 0.4064-0.4572 0.5588-0.18062 0.14676-0.40076 0.14676-0.27658 0-0.27658-0.31609 0-0.04516 0.02822-0.14676l0.77329-2.9803q0.02258-0.06773 0.02258-0.1016 0-0.12982-0.38382-0.12982v-0.09031q0.4064-0.0508 0.88053-0.1524l0.02822 0.02822-0.85231 3.2681q-0.0056 0.01129-0.03387 0.12418-0.02822 0.11289-0.02822 0.1524 0 0.1016 0.08467 0.1016zm2.8843-0.0508q0.02258 0 0.05644-0.01693 0.03387-0.02258 0.08467-0.06773 0.05644-0.04515 0.09031-0.07902 0.03387-0.03951 0.10724-0.11289 0.07902-0.07902 0.11289-0.11289l0.06773 0.05645q-0.31044 0.38382-0.46284 0.50236t-0.32173 0.11853q-0.22578 0-0.22578-0.23142 0-0.14111 0.12982-0.64911-0.37253 0.52493-0.60396 0.70556-0.23142 0.18062-0.53058 0.18062-0.27093 0-0.42333-0.16369-0.1524-0.16933-0.1524-0.46284 0-0.43462 0.24271-0.88618 0.24836-0.45156 0.62653-0.74507 0.38382-0.29351 0.74507-0.29351 0.37818 0 0.45156 0.32738l0.06209-0.27093 0.01693-0.01693 0.34431-0.03951 0.03951 0.01693q-0.0056 0.02258-0.03387 0.11853-0.50236 1.8401-0.50236 2.0489 0 0.07338 0.07902 0.07338zm-0.10724-1.7893q0-0.15804-0.09596-0.24836-0.09031-0.09596-0.24836-0.09596-0.31044 0-0.59267 0.36124-0.27658 0.36124-0.41769 0.75636-0.13547 0.38947-0.13547 0.6096 0 0.19191 0.09031 0.31044 0.09031 0.11289 0.23707 0.11289 0.26529 0 0.54187-0.3048 0.27658-0.31044 0.44591-0.73378 0.17498-0.42333 0.17498-0.76764zm1.4845 1.8175q0.12982 0 0.46284-0.44027l0.07338 0.06209q-0.24271 0.3556-0.41769 0.50236-0.17498 0.14111-0.37253 0.14111-0.25964 0-0.25964-0.32173 0-0.16369 0.12418-0.61524l0.27093-0.99907q0.0508-0.16933 0.0508-0.24836 0-0.08467-0.06773-0.10724-0.06209-0.02258-0.28787-0.02822v-0.09031q0.25964-0.02258 0.90311-0.14111l0.01693 0.01129-0.53058 1.9417q-0.05645 0.2032-0.05645 0.24836 0 0.02822 0.02822 0.05644t0.06209 0.02822zm0.22578-3.4036q0.07902-0.08467 0.19191-0.08467 0.11289 0 0.19756 0.09596 0.08467 0.09031 0.08467 0.21449 0 0.11853-0.08467 0.2032-0.07902 0.08467-0.19191 0.08467-0.12418 0-0.19756-0.07902-0.07338-0.08467-0.07338-0.22013 0-0.12982 0.07338-0.21449zm1.2418 3.6689q-0.11289 0-0.3048-0.05644-0.19191-0.0508-0.28222-0.0508-0.07902 0-0.13547 0.11853h-0.09031l0.11289-0.89747h0.09031q0.06773 0.40076 0.2032 0.58702 0.14111 0.18062 0.37253 0.18062 0.18627 0 0.29916-0.11853 0.11853-0.12418 0.11853-0.31609 0-0.16369-0.10724-0.34996-0.1016-0.18627-0.23142-0.32173-0.12418-0.14111-0.23142-0.33302-0.1016-0.19191-0.1016-0.37253 0-0.28222 0.18627-0.45156 0.18627-0.16933 0.49671-0.16933 0.11289 0 0.28787 0.0508 0.18062 0.04515 0.23142 0.04515 0.11289 0 0.16933-0.1016h0.07902l-0.11289 0.78458h-0.09031q-0.08467-0.64911-0.51929-0.64911-0.14676 0-0.23142 0.08467-0.08467 0.07902-0.08467 0.22013 0 0.13547 0.10724 0.31609 0.10724 0.18062 0.23707 0.33302 0.12982 0.14676 0.23707 0.34996 0.10724 0.2032 0.10724 0.38382 0 0.32173-0.23142 0.53058-0.22578 0.2032-0.58138 0.2032zm1.8683-0.26529q0.12982 0 0.46284-0.44027l0.07338 0.06209q-0.24271 0.3556-0.41769 0.50236-0.17498 0.14111-0.37253 0.14111-0.25964 0-0.25964-0.32173 0-0.16369 0.12418-0.61524l0.27093-0.99907q0.0508-0.16933 0.0508-0.24836 0-0.08467-0.06773-0.10724-0.06209-0.02258-0.28787-0.02822v-0.09031q0.25964-0.02258 0.90311-0.14111l0.01693 0.01129-0.53058 1.9417q-0.05644 0.2032-0.05644 0.24836 0 0.02822 0.02822 0.05644t0.06209 0.02822zm0.22578-3.4036q0.07902-0.08467 0.19191-0.08467 0.11289 0 0.19756 0.09596 0.08467 0.09031 0.08467 0.21449 0 0.11853-0.08467 0.2032-0.07902 0.08467-0.19191 0.08467-0.12418 0-0.19756-0.07902-0.07338-0.08467-0.07338-0.22013 0-0.12982 0.07338-0.21449zm2.3481 1.6877q-0.10724 0-0.1524-0.0508-0.04516-0.0508-0.06773-0.1016-0.02258-0.0508-0.07338-0.0508-0.1524 0-0.44027 0.49107-0.19191 0.32173-0.31044 0.61524-0.11853 0.29351-0.33867 1.016h-0.42898l0.4572-1.6482q0.09031-0.32738 0.09031-0.46284 0-0.15804-0.19756-0.15804-0.05645 0-0.19191 0.02822v-0.09596q0.24836-0.03951 0.87489-0.1524l0.01693 0.01129-0.29916 1.2248q0.05644-0.14676 0.14676-0.32738 0.09596-0.18062 0.23707-0.40076 0.14111-0.22013 0.32173-0.36124 0.18062-0.14676 0.34996-0.14676 0.11853 0 0.19191 0.08467 0.07338 0.07902 0.07338 0.20884 0 0.27658-0.25964 0.27658zm0.54751 2.0489q0-0.07338-0.12982-0.19191-0.12418-0.12418-0.12418-0.24271 0-0.11289 0.07902-0.18627 0.08467-0.07902 0.20884-0.07902 0.14111 0 0.23142 0.11853 0.09596 0.11289 0.09596 0.28222 0 0.48542-0.73378 0.89746l-0.0508-0.09596q0.42333-0.28222 0.42333-0.50236zm4.4027-0.74507 0.06773 0.06773q-0.24836 0.28787-0.5588 0.45156-0.31044 0.15804-0.6096 0.15804-0.33302 0-0.54187-0.21449-0.2032-0.21449-0.2032-0.5588 0-0.41204 0.254-0.82973 0.254-0.41769 0.64911-0.68298 0.40076-0.26529 0.79587-0.26529 0.20884 0 0.32738 0.1016 0.12418 0.1016 0.12418 0.28222 0 0.36689-0.4064 0.65476-0.4064 0.28787-1.0386 0.37818l-0.15804 0.02258q-0.05644 0.22578-0.05644 0.34996 0 0.23142 0.14111 0.37253 0.14676 0.13547 0.38947 0.13547 0.18062 0 0.34996-0.08467 0.16933-0.09031 0.47413-0.33867zm-1.2587-0.5588q0.3048-0.07338 0.53058-0.18062 0.23142-0.10724 0.34996-0.20884 0.12418-0.1016 0.19756-0.22013 0.07338-0.11853 0.09031-0.19756 0.02258-0.07902 0.02258-0.15804 0-0.09596-0.05645-0.15804-0.0508-0.06209-0.14111-0.06209-0.21449 0-0.48542 0.28222-0.27093 0.27658-0.41204 0.65476zm4.1543 0.51364 0.07902 0.07338q-0.29351 0.38947-0.44591 0.51364t-0.34431 0.12418q-0.14111 0-0.2032-0.07338-0.06209-0.07338-0.06209-0.23142 0-0.08467 0.09031-0.42333l0.24836-0.93133q0.07902-0.3048 0.07902-0.42898 0-0.16369-0.13547-0.16369-0.31044 0-0.83538 0.80151-0.18627 0.28787-0.27658 0.51364-0.09031 0.22013-0.28787 0.88618h-0.42333l0.54187-1.9756q0.01129-0.05644 0.01129-0.09596 0-0.08467-0.07338-0.11289-0.07338-0.03387-0.28787-0.03951v-0.09031q0.57009-0.10724 0.9144-0.17498l0.01693 0.01129-0.37818 1.2305q0.43462-0.67733 0.72813-0.95955 0.29916-0.28222 0.57009-0.28222 0.16369 0 0.26529 0.09596 0.10724 0.09596 0.10724 0.24836 0 0.14676-0.0508 0.32173l-0.32173 1.1628q-0.07902 0.31609-0.07902 0.3556 0 0.03387 0.02822 0.06209t0.06209 0.02822q0.1016 0 0.46284-0.44591zm2.3086 0.47978q0.09031 0 0.16933-0.07902 0.08467-0.07902 0.37253-0.43462l0.07338 0.0508q-0.27658 0.4064-0.4572 0.5588-0.18062 0.14676-0.40076 0.14676-0.27658 0-0.27658-0.31609 0-0.04516 0.02822-0.14676l0.77329-2.9803q0.02258-0.06773 0.02258-0.1016 0-0.12982-0.38382-0.12982v-0.09031q0.4064-0.0508 0.88053-0.1524l0.02822 0.02822-0.85231 3.2681q-0.0056 0.01129-0.03387 0.12418-0.02822 0.11289-0.02822 0.1524 0 0.1016 0.08467 0.1016zm3.3472-1.5184q0 0.37253-0.22013 0.77893-0.21449 0.40076-0.6096 0.69427-0.39511 0.28787-0.82973 0.28787-0.38382 0-0.6096-0.20884-0.22013-0.21449-0.22013-0.58138 0-0.66604 0.52493-1.2136 0.52493-0.54751 1.1571-0.54751 0.36124 0 0.58138 0.22013 0.22578 0.22013 0.22578 0.57009zm-1.5748 1.6425q0.29916 0 0.5588-0.31044 0.26529-0.31044 0.40076-0.71684 0.14111-0.41204 0.14111-0.75636 0-0.24271-0.11289-0.38382-0.10724-0.14676-0.28787-0.14676-0.28222 0-0.55316 0.29916t-0.42898 0.71684-0.15804 0.78458q0 0.23142 0.11853 0.37253 0.12418 0.14111 0.32173 0.14111zm2.3481-0.14676q0.12982 0 0.46284-0.44027l0.07338 0.06209q-0.24271 0.3556-0.41769 0.50236-0.17498 0.14111-0.37253 0.14111-0.25964 0-0.25964-0.32173 0-0.16369 0.12418-0.61524l0.27093-0.99907q0.0508-0.16933 0.0508-0.24836 0-0.08467-0.06773-0.10724-0.06209-0.02258-0.28787-0.02822v-0.09031q0.25964-0.02258 0.90311-0.14111l0.01693 0.01129-0.53058 1.9417q-0.05644 0.2032-0.05644 0.24836 0 0.02822 0.02822 0.05644t0.06209 0.02822zm0.22578-3.4036q0.07902-0.08467 0.19191-0.08467 0.11289 0 0.19756 0.09596 0.08467 0.09031 0.08467 0.21449 0 0.11853-0.08467 0.2032-0.07902 0.08467-0.19191 0.08467-0.12418 0-0.19756-0.07902-0.07338-0.08467-0.07338-0.22013 0-0.12982 0.07338-0.21449zm1.2418 3.6689q-0.11289 0-0.3048-0.05644-0.19191-0.0508-0.28222-0.0508-0.07902 0-0.13547 0.11853h-0.09031l0.11289-0.89747h0.09031q0.06773 0.40076 0.2032 0.58702 0.14111 0.18062 0.37253 0.18062 0.18627 0 0.29916-0.11853 0.11853-0.12418 0.11853-0.31609 0-0.16369-0.10724-0.34996-0.1016-0.18627-0.23142-0.32173-0.12418-0.14111-0.23142-0.33302-0.1016-0.19191-0.1016-0.37253 0-0.28222 0.18627-0.45156 0.18627-0.16933 0.49671-0.16933 0.11289 0 0.28787 0.0508 0.18062 0.04515 0.23142 0.04515 0.11289 0 0.16933-0.1016h0.07902l-0.11289 0.78458h-0.09031q-0.08467-0.64911-0.51929-0.64911-0.14676 0-0.23142 0.08467-0.08467 0.07902-0.08467 0.22013 0 0.13547 0.10724 0.31609 0.10724 0.18062 0.23707 0.33302 0.12982 0.14676 0.23707 0.34996 0.10724 0.2032 0.10724 0.38382 0 0.32173-0.23142 0.53058-0.22578 0.2032-0.58138 0.2032zm1.8683-0.26529q0.12982 0 0.46284-0.44027l0.07338 0.06209q-0.24271 0.3556-0.41769 0.50236-0.17498 0.14111-0.37253 0.14111-0.25964 0-0.25964-0.32173 0-0.16369 0.12418-0.61524l0.27093-0.99907q0.0508-0.16933 0.0508-0.24836 0-0.08467-0.06773-0.10724-0.06209-0.02258-0.28787-0.02822v-0.09031q0.25964-0.02258 0.90311-0.14111l0.01693 0.01129-0.53058 1.9417q-0.05644 0.2032-0.05644 0.24836 0 0.02822 0.02822 0.05644t0.06209 0.02822zm0.22578-3.4036q0.07902-0.08467 0.19191-0.08467 0.11289 0 0.19756 0.09596 0.08467 0.09031 0.08467 0.21449 0 0.11853-0.08467 0.2032-0.07902 0.08467-0.19191 0.08467-0.12418 0-0.19756-0.07902-0.07338-0.08467-0.07338-0.22013 0-0.12982 0.07338-0.21449zm2.3481 1.6877q-0.10724 0-0.1524-0.0508-0.0451-0.0508-0.0677-0.1016t-0.0734-0.0508q-0.1524 0-0.44026 0.49107-0.19191 0.32173-0.31045 0.61524-0.11853 0.29351-0.33866 1.016h-0.42898l0.4572-1.6482q0.0903-0.32738 0.0903-0.46284 0-0.15804-0.19756-0.15804-0.0564 0-0.19191 0.02822v-0.09596q0.24836-0.03951 0.87489-0.1524l0.0169 0.01129-0.29915 1.2248q0.0564-0.14676 0.14675-0.32738 0.096-0.18062 0.23707-0.40076 0.14111-0.22013 0.32173-0.36124 0.18063-0.14676 0.34996-0.14676 0.11853 0 0.19191 0.08467 0.0734 0.07902 0.0734 0.20884 0 0.27658-0.25965 0.27658zm4.1882 0.22013q0 0.37253-0.22013 0.77893-0.21449 0.40076-0.6096 0.69427-0.39511 0.28787-0.82973 0.28787-0.38382 0-0.6096-0.20884-0.22013-0.21449-0.22013-0.58138 0-0.66604 0.52493-1.2136 0.52493-0.54751 1.1571-0.54751 0.36124 0 0.58138 0.22013 0.22577 0.22013 0.22577 0.57009zm-1.5748 1.6425q0.29915 0 0.55879-0.31044 0.26529-0.31044 0.40076-0.71684 0.14111-0.41204 0.14111-0.75636 0-0.24271-0.11289-0.38382-0.10724-0.14676-0.28786-0.14676-0.28223 0-0.55316 0.29916t-0.42898 0.71684q-0.15804 0.41769-0.15804 0.78458 0 0.23142 0.11853 0.37253 0.12418 0.14111 0.32174 0.14111zm2.1392-1.6877q0.079-0.29916 0.079-0.37818 0-0.07902-0.079-0.10724-0.0734-0.02822-0.25964-0.02822v-0.07902q0.38382-0.04515 0.84666-0.1524l0.0169 0.01129-0.51365 2.0489q-6e-3 0.01693-6e-3 0.0508 0 0.14111 0.11853 0.14111 0.27658 0 0.79587-0.82409 0.19191-0.3048 0.28222-0.508 0.096-0.20884 0.33867-0.86924h0.41769l-0.44592 1.6877q-0.10724 0.4064-0.10724 0.44027 0 0.09596 0.0621 0.09596 0.0677 0 0.15804-0.08467 0.0903-0.08467 0.31045-0.36124l0.079 0.0508q-0.28787 0.41204-0.43462 0.53622-0.14676 0.12418-0.34431 0.12418-0.12418 0-0.19756-0.06773-0.0734-0.07338-0.0734-0.2032 0-0.17498 0.254-1.112-0.48542 0.8128-0.76764 1.1063-0.28222 0.28787-0.58138 0.28787-0.29915 0-0.29915-0.31044 0-0.13547 0.14111-0.69427zm5.5993 1.1289 0.0677 0.06773q-0.24836 0.28787-0.5588 0.45156-0.31045 0.15804-0.6096 0.15804-0.33302 0-0.54187-0.21449-0.2032-0.21449-0.2032-0.5588 0-0.41204 0.254-0.82973 0.254-0.41769 0.64911-0.68298 0.40076-0.26529 0.79587-0.26529 0.20884 0 0.32738 0.1016 0.12418 0.1016 0.12418 0.28222 0 0.36689-0.4064 0.65476-0.4064 0.28787-1.0386 0.37818l-0.15805 0.02258q-0.0564 0.22578-0.0564 0.34996 0 0.23142 0.14111 0.37253 0.14676 0.13547 0.38947 0.13547 0.18062 0 0.34995-0.08467 0.16934-0.09031 0.47414-0.33867zm-1.2587-0.5588q0.30479-0.07338 0.53057-0.18062 0.23142-0.10724 0.34996-0.20884 0.12418-0.1016 0.19755-0.22013 0.0734-0.11853 0.0903-0.19756 0.0226-0.07902 0.0226-0.15804 0-0.09596-0.0564-0.15804-0.0508-0.06209-0.14111-0.06209-0.21449 0-0.48543 0.28222-0.27093 0.27658-0.41204 0.65476zm4.1543 0.51364 0.079 0.07338q-0.29351 0.38947-0.44591 0.51364t-0.34431 0.12418q-0.14111 0-0.2032-0.07338-0.0621-0.07338-0.0621-0.23142 0-0.08467 0.0903-0.42333l0.24836-0.93133q0.079-0.3048 0.079-0.42898 0-0.16369-0.13546-0.16369-0.31045 0-0.83538 0.80151-0.18627 0.28787-0.27658 0.51364-0.0903 0.22013-0.28787 0.88618h-0.42333l0.54187-1.9756q0.0113-0.05644 0.0113-0.09596 0-0.08467-0.0734-0.11289-0.0734-0.03387-0.28787-0.03951v-0.09031q0.57009-0.10724 0.9144-0.17498l0.0169 0.01129-0.37817 1.2305q0.43462-0.67733 0.72813-0.95955 0.29916-0.28222 0.57009-0.28222 0.16369 0 0.26529 0.09596 0.10724 0.09596 0.10724 0.24836 0 0.14676-0.0508 0.32173l-0.32173 1.1628q-0.079 0.31609-0.079 0.3556 0 0.03387 0.0282 0.06209t0.0621 0.02822q0.1016 0 0.46284-0.44591zm3.3528-1.7103q-0.33867 0-0.60395 0.27093-0.26529 0.26529-0.39511 0.62653-0.12418 0.3556-0.12418 0.68862 0 0.29916 0.13546 0.47413 0.13547 0.16933 0.37818 0.16933 0.20885 0 0.38947-0.1016 0.18626-0.10724 0.41769-0.3556l0.0903 0.05644q-0.254 0.32173-0.50236 0.46284-0.24835 0.14111-0.56444 0.14111-0.39511 0-0.61525-0.22013-0.21448-0.22578-0.21448-0.62653 0-0.6604 0.50235-1.1797 0.50236-0.52493 1.1345-0.52493 0.254 0 0.42334 0.12982 0.16933 0.12982 0.16933 0.32738 0 0.10724-0.079 0.18627-0.079 0.07338-0.19191 0.07338-0.22014 0-0.22014-0.21449 0-0.05645 0.0395-0.14676 0.0452-0.09595 0.0452-0.12418 0-0.11289-0.21449-0.11289zm3.1609 0.67169q0 0.37253-0.22013 0.77893-0.21449 0.40076-0.6096 0.69427-0.39511 0.28787-0.82974 0.28787-0.38382 0-0.6096-0.20884-0.22013-0.21449-0.22013-0.58138 0-0.66604 0.52493-1.2136 0.52494-0.54751 1.1571-0.54751 0.36125 0 0.58138 0.22013 0.22578 0.22013 0.22578 0.57009zm-1.5748 1.6425q0.29916 0 0.5588-0.31044 0.26529-0.31044 0.40076-0.71684 0.14111-0.41204 0.14111-0.75636 0-0.24271-0.11289-0.38382-0.10725-0.14676-0.28787-0.14676-0.28222 0-0.55315 0.29916-0.27094 0.29916-0.42898 0.71684-0.15805 0.41769-0.15805 0.78458 0 0.23142 0.11854 0.37253 0.12418 0.14111 0.32173 0.14111zm4.9502-0.24836q0 0.09031 0.0734 0.09031t0.15804-0.07902q0.0847-0.08467 0.32173-0.36689l0.0847 0.06773q-0.22013 0.3048-0.41769 0.47413-0.19191 0.16933-0.42333 0.16933-0.22578 0-0.22578-0.25964 0-0.07338 0.0734-0.37253l0.32738-1.2982q0.0395-0.14111 0.0395-0.19756 0-0.04516-0.0339-0.07902-0.0339-0.03951-0.079-0.03951-0.12418 0-0.32173 0.17498-0.19191 0.16933-0.40076 0.4572-0.21449 0.29916-0.33866 0.60396-0.11854 0.29916-0.28787 0.95956h-0.42333q0.53622-1.9925 0.53622-2.0546 0-0.14111-0.11289-0.14111-0.14676 0-0.37818 0.22013-0.23142 0.21449-0.46849 0.57573-0.14675 0.22013-0.24835 0.47978-0.096 0.254-0.29916 0.92004h-0.42333q0.0621-0.24271 0.22013-0.80716 0.33302-1.174 0.33302-1.2926 0-0.12418-0.22013-0.12418h-0.14111v-0.09031q0.55315-0.1016 0.90311-0.17498l0.0169 0.01129-0.32737 1.1797q0.75635-1.191 1.2587-1.191 0.14111 0 0.23142 0.09596 0.0903 0.09596 0.0903 0.24271 0 0.16933-0.22578 0.85796 0.44027-0.69427 0.75071-0.95956 0.27094-0.23707 0.50236-0.23707 0.14111 0 0.23706 0.1016 0.096 0.1016 0.096 0.254 0 0.09031-0.0169 0.15804l-0.38383 1.4168q-0.0564 0.22578-0.0564 0.254zm1.2474-1.9756h-0.18627l-0.0113-0.08467q0.86924-0.12418 0.88053-0.12418 0.0282 0 0.0282 0.02258l-0.18063 0.61524q0.24836-0.34431 0.46849-0.49107 0.22014-0.14676 0.49671-0.14676 0.29916 0 0.47414 0.19191 0.17497 0.18627 0.17497 0.51364 0 0.67169-0.54186 1.2587-0.53622 0.58702-1.1515 0.58702-0.18627 0-0.37253-0.09596-0.20885 0.77329-0.20885 0.93698 0 0.16933 0.36125 0.16933v0.08467h-1.1571v-0.09031q0.0734 0 0.11853-0.01129 0.0452-0.0056 0.0903-0.03387 0.0452-0.02258 0.0677-0.05644 0.0226-0.02822 0.0564-0.1016 0.0339-0.06773 0.0564-0.14111 0.0169-0.06773 0.0508-0.2032 0.0339-0.13547 0.0621-0.27093 0.0339-0.12982 0.0903-0.34431 0.0564-0.22013 0.11289-0.43462 0.40076-1.5127 0.40076-1.5974 0-0.0508-0.0621-0.1016t-0.11853-0.0508zm1.6369 0.51929q0-0.48542-0.37253-0.48542-0.20884 0-0.42333 0.18627-0.20885 0.18062-0.31609 0.4572-0.12418 0.31609-0.24836 0.762-0.11853 0.44591-0.11853 0.58702 0 0.09031 0.0734 0.1524 0.079 0.05644 0.19755 0.05644 0.33867 0 0.62654-0.3048 0.29351-0.3048 0.43462-0.69427 0.14675-0.38947 0.14675-0.71684zm2.5005 1.1458 0.0677 0.06773q-0.24835 0.28787-0.5588 0.45156-0.31044 0.15804-0.6096 0.15804-0.33302 0-0.54186-0.21449-0.2032-0.21449-0.2032-0.5588 0-0.41204 0.254-0.82973 0.254-0.41769 0.64911-0.68298 0.40075-0.26529 0.79586-0.26529 0.20885 0 0.32738 0.1016 0.12418 0.1016 0.12418 0.28222 0 0.36689-0.4064 0.65476-0.4064 0.28787-1.0386 0.37818l-0.15804 0.02258q-0.0564 0.22578-0.0564 0.34996 0 0.23142 0.14111 0.37253 0.14676 0.13547 0.38947 0.13547 0.18062 0 0.34995-0.08467 0.16934-0.09031 0.47414-0.33867zm-1.2587-0.5588q0.3048-0.07338 0.53058-0.18062 0.23142-0.10724 0.34995-0.20884 0.12418-0.1016 0.19756-0.22013 0.0734-0.11853 0.0903-0.19756 0.0226-0.07902 0.0226-0.15804 0-0.09596-0.0564-0.15804-0.0508-0.06209-0.14111-0.06209-0.21449 0-0.48542 0.28222-0.27094 0.27658-0.41205 0.65476zm0.57573-1.6143 0.9144-0.90311q0.0677-0.05644 0.14111-0.05644 0.0847 0 0.14111 0.06209 0.0621 0.05644 0.0621 0.14111 0 0.1016-0.0959 0.15804l-0.9652 0.59831zm2.5456 0.37253-0.0282 0.18062h-0.47413l-0.49671 1.8796q-6e-3 0.01693-6e-3 0.02822 0 0.11289 0.0847 0.11289 0.0677 0 0.15804-0.08467 0.0903-0.09031 0.29916-0.36124l0.0734 0.03951q-0.26529 0.39511-0.43462 0.54187-0.16934 0.14111-0.36689 0.14111-0.11289 0-0.19191-0.06209-0.079-0.06209-0.079-0.1524 0-0.04516 0.0282-0.15804 0.0282-0.11289 0.0621-0.23142 0.0339-0.12418 0.0395-0.14111l0.4064-1.5522h-0.41769q-6e-3 -0.01693-6e-3 -0.03387 0-0.05644 0.0734-0.09596 0.0734-0.04515 0.18627-0.08467 0.11289-0.04516 0.29915-0.19191 0.19191-0.1524 0.37254-0.38947 0.0395-0.0508 0.0847-0.0508t0.0452 0.05644q0 0.01693-6e-3 0.02822l-0.15804 0.58138zm0.51365 2.2126q0.12982 0 0.46284-0.44027l0.0734 0.06209q-0.24271 0.3556-0.41769 0.50236-0.17497 0.14111-0.37253 0.14111-0.25964 0-0.25964-0.32173 0-0.16369 0.12417-0.61524l0.27094-0.99906q0.0508-0.16933 0.0508-0.24836 0-0.08467-0.0677-0.10724-0.0621-0.02258-0.28786-0.02822v-0.09031q0.25964-0.02258 0.90311-0.14111l0.0169 0.01129-0.53058 1.9417q-0.0564 0.2032-0.0564 0.24836 0 0.02822 0.0282 0.05644t0.0621 0.02822zm0.22578-3.4036q0.079-0.08467 0.19191-0.08467 0.11289 0 0.19755 0.09596 0.0847 0.09031 0.0847 0.21449 0 0.11853-0.0847 0.2032-0.079 0.08467-0.19191 0.08467-0.12417 0-0.19755-0.07902-0.0734-0.08467-0.0734-0.22013 0-0.12982 0.0734-0.21449zm2.0376 1.191-0.0282 0.18062h-0.47413l-0.49671 1.8796q-6e-3 0.01693-6e-3 0.02822 0 0.11289 0.0847 0.11289 0.0677 0 0.15805-0.08467 0.0903-0.09031 0.29915-0.36124l0.0734 0.03951q-0.26529 0.39511-0.43462 0.54187-0.16934 0.14111-0.36689 0.14111-0.11289 0-0.19191-0.06209-0.079-0.06209-0.079-0.1524 0-0.04516 0.0282-0.15804 0.0282-0.11289 0.0621-0.23142 0.0339-0.12418 0.0395-0.14111l0.4064-1.5522h-0.41769q-6e-3 -0.01693-6e-3 -0.03387 0-0.05644 0.0734-0.09596 0.0734-0.04515 0.18627-0.08467 0.11289-0.04516 0.29915-0.19191 0.19191-0.1524 0.37254-0.38947 0.0395-0.0508 0.0847-0.0508t0.0452 0.05644q0 0.01693-6e-3 0.02822l-0.15804 0.58138zm0.51364 2.2126q0.12982 0 0.46285-0.44027l0.0734 0.06209q-0.24271 0.3556-0.41769 0.50236-0.17497 0.14111-0.37253 0.14111-0.25964 0-0.25964-0.32173 0-0.16369 0.12418-0.61524l0.27093-0.99906q0.0508-0.16933 0.0508-0.24836 0-0.08467-0.0677-0.10724-0.0621-0.02258-0.28787-0.02822v-0.09031q0.25964-0.02258 0.90311-0.14111l0.0169 0.01129-0.53058 1.9417q-0.0564 0.2032-0.0564 0.24836 0 0.02822 0.0282 0.05644t0.0621 0.02822zm0.22578-3.4036q0.079-0.08467 0.19191-0.08467 0.11289 0 0.19756 0.09596 0.0847 0.09031 0.0847 0.21449 0 0.11853-0.0847 0.2032-0.079 0.08467-0.19192 0.08467-0.12417 0-0.19755-0.07902-0.0734-0.08467-0.0734-0.22013 0-0.12982 0.0734-0.21449zm3.0593 1.9078q0 0.37253-0.22014 0.77893-0.21448 0.40076-0.60959 0.69427-0.39512 0.28787-0.82974 0.28787-0.38382 0-0.6096-0.20884-0.22013-0.21449-0.22013-0.58138 0-0.66604 0.52493-1.2136 0.52494-0.54751 1.1571-0.54751 0.36125 0 0.58138 0.22013 0.22578 0.22013 0.22578 0.57009zm-1.5748 1.6425q0.29915 0 0.5588-0.31044 0.26529-0.31044 0.40075-0.71684 0.14112-0.41204 0.14112-0.75636 0-0.24271-0.11289-0.38382-0.10725-0.14676-0.28787-0.14676-0.28222 0-0.55316 0.29916-0.27093 0.29916-0.42897 0.71684-0.15805 0.41769-0.15805 0.78458 0 0.23142 0.11854 0.37253 0.12417 0.14111 0.32173 0.14111zm4.1995-0.60396 0.079 0.07338q-0.29351 0.38947-0.44591 0.51364t-0.34431 0.12418q-0.14112 0-0.2032-0.07338-0.0621-0.07338-0.0621-0.23142 0-0.08467 0.0903-0.42333l0.24835-0.93133q0.079-0.3048 0.079-0.42898 0-0.16369-0.13547-0.16369-0.31045 0-0.83538 0.80151-0.18626 0.28787-0.27658 0.51364-0.0903 0.22013-0.28786 0.88618h-0.42334l0.54187-1.9756q0.0113-0.05644 0.0113-0.09596 0-0.08467-0.0734-0.11289-0.0734-0.03387-0.28786-0.03951v-0.09031q0.57008-0.10724 0.9144-0.17498l0.0169 0.01129-0.37818 1.2305q0.43462-0.67733 0.72813-0.95955 0.29916-0.28222 0.57009-0.28222 0.16369 0 0.26529 0.09596 0.10725 0.09596 0.10725 0.24836 0 0.14676-0.0508 0.32173l-0.32174 1.1628q-0.079 0.31609-0.079 0.3556 0 0.03387 0.0282 0.06209t0.0621 0.02822q0.1016 0 0.46285-0.44591z" stroke-dasharray="1.5875, 1.5875" stroke-linecap="round" stroke-width=".26458" style="paint-order:fill markers stroke;white-space:pre" aria-label="Se faire plaisir, en loisir ou en comptition"/></g></g></svg>
